<svg xmlns="http://www.w3.org/2000/svg" viewBox="0 0 128 128">
	<path d="M8 69.9047L24.3722 76.1273L17.4974 79.9403L17.907 80.161C23.5706 83.2414 28.5894 87.3015 33.7302 91.1939C42.0252 97.4783 53.4047 101 63.181 101C63.4511 101 63.7299 100.982 64 100.982C64.2701 100.982 64.5489 101 64.819 101C74.5953 101 85.9748 97.4783 94.2698 91.1939C99.4106 87.2927 104.438 83.2325 110.093 80.161L110.503 79.9403L103.628 76.1273L120 69.9047L103.654 63.6998L110.503 59.8956L105.397 57.0624C102.905 55.6766 101.118 53.2847 100.43 50.4956C100.43 50.4779 100.421 50.4514 100.413 50.4338C100.16 49.4099 100.09 48.3508 100.238 47.3093L102.852 28.8004C102.922 28.2796 102.399 27.8648 101.885 28.0413L83.5351 34.2639C82.7596 34.5287 81.958 34.6258 81.139 34.564C76.3118 34.1756 70.5088 33.752 64.8103 33.646C64.5402 33.646 64.2614 33.6637 63.9913 33.6637C63.7212 33.6637 63.4424 33.646 63.1722 33.646C57.4738 33.752 51.6708 34.1756 46.8436 34.564C46.0333 34.6258 45.223 34.5287 44.4475 34.2639L26.1148 28.0413C25.6007 27.8648 25.0692 28.2796 25.1477 28.8004L27.7616 47.3093C27.9098 48.3508 27.8401 49.4099 27.5874 50.4338C27.5874 50.4514 27.5787 50.4779 27.5699 50.4956C26.8816 53.2935 25.0954 55.6766 22.6034 57.0624L17.4974 59.8956L24.346 63.6998L8 69.9047ZM71.8681 70.5491C71.8681 65.5798 76.0853 61.555 81.2784 61.555C86.4802 61.555 90.6887 65.5798 90.6887 70.5491C90.6887 75.5183 86.4715 79.5431 81.2784 79.5431C76.0766 79.5431 71.8681 75.5183 71.8681 70.5491ZM40.3174 67.1686L37.2765 60.946L43.7853 63.8498C45.5976 64.6619 47.6975 64.6619 49.5099 63.8498L56.0187 60.9371L52.9778 67.1597C52.1326 68.8897 52.1326 70.8933 52.9778 72.6321L56.0187 78.8547L49.5099 75.9508C47.6975 75.1388 45.5976 75.1388 43.7853 75.9508L37.2765 78.8635L40.3174 72.6409C41.1626 70.9109 41.1626 68.9074 40.3174 67.1686Z" />
	<style>
		path { fill: #333B43; }
		@media (prefers-color-scheme: dark) {
			path { fill: #FFF; }
		}
	</style>
</svg>
