<svg width="24" height="24" viewBox="0 0 24 24" fill="none" xmlns="http://www.w3.org/2000/svg">
<path d="M16 9C16.5523 9 17 8.55228 17 8C17 7.44772 16.5523 7 16 7C15.4477 7 15 7.44772 15 8C15 8.55228 15.4477 9 16 9Z" stroke="white" stroke-width="2" stroke-linecap="round" stroke-linejoin="round"/>
<path d="M16 17C16.5523 17 17 16.5523 17 16C17 15.4477 16.5523 15 16 15C15.4477 15 15 15.4477 15 16C15 16.5523 15.4477 17 16 17Z" stroke="white" stroke-width="2" stroke-linecap="round" stroke-linejoin="round"/>
<path d="M8 9C8.55228 9 9 8.55228 9 8C9 7.44772 8.55228 7 8 7C7.44772 7 7 7.44772 7 8C7 8.55228 7.44772 9 8 9Z" stroke="white" stroke-width="2" stroke-linecap="round" stroke-linejoin="round"/>
<path d="M8 17C8.55228 17 9 16.5523 9 16C9 15.4477 8.55228 15 8 15C7.44772 15 7 15.4477 7 16C7 16.5523 7.44772 17 8 17Z" stroke="white" stroke-width="2" stroke-linecap="round" stroke-linejoin="round"/>
</svg>
