<svg width="38" height="38" viewBox="0 0 38 38" fill="none" xmlns="http://www.w3.org/2000/svg">
<path fill-rule="evenodd" clip-rule="evenodd" d="M19.0002 6.33203C12.0018 6.33203 6.3335 12.1437 6.3335 19.3191C6.3335 25.0659 9.95933 29.9198 14.9943 31.6406C15.6277 31.7542 15.8652 31.3646 15.8652 31.0237C15.8652 30.7152 15.8493 29.6925 15.8493 28.6048C12.6668 29.2055 11.8435 27.8094 11.5902 27.0789C11.4477 26.7055 10.8302 25.5529 10.2918 25.2444C9.8485 25.0009 9.21516 24.4003 10.276 24.384C11.2735 24.3678 11.986 25.3256 12.2235 25.7152C13.3635 27.6795 15.1843 27.1276 15.9127 26.7866C16.0235 25.9425 16.356 25.3743 16.7202 25.0496C13.9018 24.7249 10.9568 23.6048 10.9568 18.6373C10.9568 17.2249 11.4477 16.0561 12.2552 15.147C12.1285 14.8223 11.6852 13.4911 12.3818 11.7054C12.3818 11.7054 13.4427 11.3645 15.8652 13.0366C16.8785 12.7444 17.9552 12.5983 19.0318 12.5983C20.1085 12.5983 21.1852 12.7444 22.1985 13.0366C24.621 11.3483 25.6818 11.7054 25.6818 11.7054C26.3785 13.4911 25.9352 14.8223 25.8085 15.147C26.616 16.0561 27.1068 17.2087 27.1068 18.6373C27.1068 23.621 24.146 24.7249 21.3277 25.0496C21.7868 25.4555 22.1827 26.2347 22.1827 27.4522C22.1827 29.1892 22.1668 30.5854 22.1668 31.0237C22.1668 31.3646 22.4043 31.7704 23.0377 31.6406C28.041 29.9198 31.6668 25.0496 31.6668 19.3191C31.6668 12.1437 25.9985 6.33203 19.0002 6.33203Z" fill="white"/>
</svg>
