<svg xmlns="http://www.w3.org/2000/svg" viewBox="0 0 120 24" fill="none">
  <path fill="#fff" d="m0 13.776 5.703 1.982-2.505 1.317.137.073c1.906 1.011 3.597 2.347 5.329 3.628C11.457 22.842 15.29 24 18.58 24c.09 0 .185-.005.276-.007.092.002.185.007.276.007 3.292 0 7.125-1.158 9.918-3.224 1.731-1.282 3.423-2.617 5.328-3.628l.137-.073-2.563-1.322 5.761-1.977-5.748-1.977 2.55-1.313-1.719-.932a3.398 3.398 0 0 1-1.672-2.16l-.005-.02a2.635 2.635 0 0 1-.058-1.026l.88-6.084c.025-.172-.153-.308-.327-.25L25.437 2.06c-.26.086-.532.12-.806.098-1.627-.126-3.58-.265-5.498-.3-.092 0-.184.003-.276.006l-.276-.007c-1.918.036-3.871.175-5.498.301a2.053 2.053 0 0 1-.806-.098L6.1.014c-.174-.058-.352.078-.327.25l.88 6.084c.05.342.027.69-.058 1.026l-.005.02a3.354 3.354 0 0 1-1.678 2.132l-1.713.96 2.491 1.307L0 13.776Zm21.49.005c0-1.82 1.492-3.295 3.332-3.295 1.84 0 3.332 1.476 3.332 3.295 0 1.82-1.492 3.296-3.332 3.296-1.84 0-3.332-1.476-3.332-3.296Zm-10.96-1.005-1.082-2.288 2.315 1.068c.645.298 1.39.298 2.034 0l2.313-1.07-1.08 2.289c-.3.638-.3 1.374.001 2.012l1.082 2.288-2.314-1.068a2.426 2.426 0 0 0-2.034 0l-2.314 1.07 1.08-2.288c.3-.638.3-1.375 0-2.012Zm91.122 7.508 6.484-8.609v2.11l-6.399-8.524h5.34l3.602 5.2h-1.483l3.644-5.2h5.34l-6.421 8.524v-2.11l6.527 8.609h-5.361l-3.687-5.22h1.42l-3.687 5.22h-5.319Zm-10.806.288c-1.08 0-2.051-.212-2.912-.634-.86-.423-1.53-.997-2.011-1.721a4.327 4.327 0 0 1-.72-2.445c0-1.087.28-1.942.84-2.566.56-.644 1.47-1.097 2.732-1.359 1.26-.281 2.931-.422 5.013-.422h1.59v2.354h-1.56c-.78 0-1.441.03-1.981.09-.52.061-.951.172-1.291.333-.34.14-.59.322-.75.543-.14.222-.21.504-.21.846 0 .563.19 1.026.57 1.388.4.363.97.544 1.71.544.58 0 1.091-.131 1.531-.393.46-.282.82-.654 1.081-1.117.26-.483.39-1.026.39-1.63v-3.471c0-.886-.2-1.51-.6-1.872-.4-.382-1.08-.574-2.041-.574-.8 0-1.651.131-2.552.393-.88.241-1.761.614-2.641 1.117l-1.231-3.05c.52-.361 1.15-.673 1.89-.935a13.296 13.296 0 0 1 2.372-.634c.82-.16 1.601-.241 2.342-.241 1.54 0 2.802.231 3.782.694 1 .443 1.751 1.137 2.252 2.083.5.926.75 2.123.75 3.592v8.754h-4.233v-2.988h.21a3.887 3.887 0 0 1-.78 1.78 3.99 3.99 0 0 1-1.47 1.148c-.601.262-1.292.393-2.072.393Zm-17.989-.312V5.44h4.467v3.62h-.302c.242-1.207.765-2.133 1.57-2.777.825-.664 1.912-1.047 3.26-1.147l1.328-.09.271 3.833-2.565.272c-1.147.1-2.002.432-2.566.996-.543.563-.815 1.378-.815 2.445v7.668h-4.648Zm-7.292.206c-1.9 0-3.292-.493-4.172-1.479-.88-1.006-1.321-2.495-1.321-4.467V0h4.533v14.338c0 .504.08.946.24 1.329.16.362.39.633.69.815.32.18 1.604.271 2.084.271.2 0 .41-.01.63-.03.22-.02 1.574-.181 1.774-.241l-.32 3.652c-.38.1-1.654.181-2.054.242-.38.06-1.663.09-2.084.09Zm-14.332-.193c-1.741 0-3.242-.312-4.503-.936-1.241-.644-2.201-1.54-2.882-2.686-.66-1.168-.99-2.536-.99-4.106 0-1.53.32-2.868.96-4.015a6.824 6.824 0 0 1 2.672-2.717c1.16-.664 2.471-.996 3.932-.996 1.441 0 2.682.312 3.722.936 1.041.604 1.842 1.47 2.402 2.596.58 1.127.87 2.466.87 4.015v1.147H46.58v-2.354h7.564l-.48.422c0-1.227-.27-2.153-.81-2.777-.52-.644-1.271-.966-2.252-.966-.74 0-1.37.171-1.891.513-.52.342-.92.835-1.2 1.48-.28.643-.421 1.418-.421 2.324v.241c0 1.027.15 1.872.45 2.536a3.18 3.18 0 0 0 1.411 1.449c.64.322 1.431.483 2.372.483.8 0 1.61-.12 2.431-.362a6.8 6.8 0 0 0 2.221-1.117l1.201 3.049c-.74.563-1.65 1.016-2.731 1.358a11.007 11.007 0 0 1-3.212.483Z"/>
</svg>
