<svg width="20" height="20" viewBox="0 0 20 20" fill="none" xmlns="http://www.w3.org/2000/svg">
<path d="M16.9436 6.33333H12.0826V5H16.9436V6.33333ZM18.1422 13C17.8353 13.8647 16.7332 15 14.5999 15C12.4652 15 10.7361 13.8473 10.7361 11.2167C10.7361 8.61 12.3506 7.27 14.5318 7.27C16.6721 7.27 17.979 8.458 18.2644 10.2207C18.3186 10.558 18.3401 11.0127 18.3304 11.6473H12.7562C12.8465 13.788 15.1749 13.8553 15.9423 13H18.1422ZM12.8048 10.3333H16.2527C16.1797 9.302 15.4638 8.854 14.5325 8.854C13.5145 8.854 12.9513 9.366 12.8048 10.3333ZM6.15625 14.992H1.66602V5.014H6.49444C10.2972 5.068 10.3694 8.64333 8.3833 9.618C10.7868 10.458 10.8673 14.992 6.15625 14.992ZM3.74933 9H6.23819C7.97984 9 8.25622 7 6.02152 7H3.74933V9ZM6.10416 11H3.74933V13.0107H6.06944C8.19095 13.0107 8.06109 11 6.10416 11Z" fill="#000A14"/>
</svg>
