<svg width="24" height="24" viewBox="0 0 24 24" fill="none" xmlns="http://www.w3.org/2000/svg">
<path d="M17.5447 6.99476C16.5073 6.52624 15.4126 6.19214 14.2879 6.00082C14.2777 5.99895 14.2671 6.00029 14.2578 6.00466C14.2484 6.00903 14.2406 6.0162 14.2356 6.02516C14.0949 6.27135 13.9391 6.59245 13.8301 6.84481C12.6003 6.66362 11.3767 6.66362 10.1722 6.84481C10.0631 6.58681 9.90166 6.27135 9.7604 6.02516C9.75516 6.01641 9.74737 6.00941 9.73803 6.00508C9.7287 6.00075 9.71825 5.99929 9.70806 6.00089C8.58325 6.19176 7.48846 6.52583 6.45127 6.9947C6.44239 6.99843 6.43492 7.00478 6.42987 7.01287C4.3556 10.0621 3.78734 13.0364 4.06614 15.9738C4.06692 15.981 4.06917 15.9879 4.07274 15.9943C4.07632 16.0006 4.08114 16.0061 4.08694 16.0106C5.45547 16.9995 6.78113 17.5999 8.0822 17.9978C8.09231 18.0008 8.10311 18.0006 8.11314 17.9974C8.12318 17.9942 8.13196 17.988 8.13833 17.9797C8.44606 17.5662 8.7204 17.1301 8.95566 16.6716C8.9589 16.6653 8.96074 16.6584 8.96108 16.6514C8.96142 16.6443 8.96024 16.6373 8.95761 16.6308C8.955 16.6242 8.951 16.6183 8.94588 16.6134C8.94076 16.6084 8.93465 16.6046 8.92793 16.6022C8.49273 16.4398 8.0784 16.2418 7.6798 16.0169C7.67253 16.0127 7.66642 16.0068 7.66202 15.9997C7.65762 15.9926 7.65505 15.9846 7.65455 15.9763C7.65405 15.9681 7.65563 15.9598 7.65915 15.9522C7.66267 15.9447 7.66802 15.9381 7.67473 15.9331C7.7586 15.8713 7.84253 15.807 7.9226 15.742C7.92971 15.7362 7.93833 15.7325 7.94747 15.7313C7.95661 15.7301 7.96591 15.7314 7.97433 15.7351C10.5929 16.9114 13.4277 16.9114 16.0153 15.7351C16.0237 15.7311 16.0331 15.7296 16.0423 15.7307C16.0516 15.7318 16.0604 15.7355 16.0676 15.7413C16.1477 15.8063 16.2316 15.8713 16.3161 15.9331C16.3228 15.9381 16.3282 15.9446 16.3318 15.9521C16.3354 15.9596 16.337 15.9679 16.3366 15.9761C16.3361 15.9844 16.3336 15.9924 16.3293 15.9995C16.325 16.0066 16.3189 16.0126 16.3117 16.0168C15.913 16.246 15.4953 16.4416 15.0631 16.6016C15.0563 16.6041 15.0502 16.608 15.0452 16.613C15.0401 16.618 15.0361 16.624 15.0336 16.6306C15.031 16.6372 15.0299 16.6443 15.0303 16.6513C15.0307 16.6584 15.0326 16.6653 15.0359 16.6716C15.2762 17.1294 15.5505 17.5655 15.8526 17.9791C15.8588 17.9876 15.8675 17.994 15.8776 17.9974C15.8877 18.0007 15.8985 18.0009 15.9087 17.9978C17.2161 17.5998 18.5417 16.9995 19.9102 16.0106C19.9161 16.0064 19.9211 16.0009 19.9246 15.9947C19.9282 15.9885 19.9305 15.9815 19.9311 15.9744C20.2647 12.5784 19.3723 9.62851 17.5655 7.01346C17.561 7.00496 17.5536 6.99831 17.5447 6.9947V6.99476ZM9.34666 14.1852C8.55833 14.1852 7.90873 13.473 7.90873 12.5984C7.90873 11.7238 8.54573 11.0116 9.34673 11.0116C10.1539 11.0116 10.7972 11.7301 10.7846 12.5985C10.7846 13.473 10.1476 14.1852 9.34666 14.1852ZM14.6632 14.1852C13.8749 14.1852 13.2253 13.473 13.2253 12.5984C13.2253 11.7238 13.8622 11.0116 14.6632 11.0116C15.4704 11.0116 16.1137 11.7301 16.1011 12.5985C16.1011 13.473 15.4704 14.1852 14.6632 14.1852Z" fill="#000A14"/>
</svg>
