<svg width="20" height="20" viewBox="0 0 20 20" fill="none" xmlns="http://www.w3.org/2000/svg">
<path d="M10.0007 3.33594C6.31843 3.33594 3.33398 6.32094 3.33398 10.0026C3.33398 13.6843 6.31843 16.6693 10.0007 16.6693C13.6829 16.6693 16.6673 13.6843 16.6673 10.0026C16.6673 6.32094 13.6829 3.33594 10.0007 3.33594ZM15.4923 9.69205C14.0618 9.4576 12.7462 9.44483 11.5462 9.65149C11.4107 9.33872 11.2701 9.02649 11.1201 8.71816C12.4034 8.1626 13.434 7.40816 14.2023 6.45038C14.9523 7.33594 15.4229 8.46094 15.4923 9.69205ZM13.3579 5.64649C12.6884 6.50983 11.7645 7.1926 10.5879 7.69094C10.0234 6.65705 9.37787 5.64872 8.6501 4.66983C9.08287 4.56038 9.53398 4.49538 10.0007 4.49538C11.2645 4.49538 12.4273 4.92816 13.3579 5.64649ZM7.51565 5.09483C8.2551 6.0626 8.91065 7.06038 9.48065 8.08427C8.13065 8.48149 6.51898 8.68538 4.65621 8.69816C5.04065 7.12316 6.10121 5.81316 7.51565 5.09483ZM4.49343 10.0026L4.50065 9.86038C6.63898 9.8576 8.48343 9.61149 10.0284 9.12594C10.1579 9.38983 10.2818 9.65483 10.4007 9.92149C8.52287 10.5087 6.97565 11.7115 5.76898 13.5215C4.97343 12.5665 4.49343 11.3398 4.49343 10.0026ZM6.62065 14.3415C7.71454 12.6259 9.11065 11.5093 10.8418 10.9932C11.3573 12.3376 11.7357 13.7209 11.9768 15.1376C10.1162 15.8548 8.11398 15.5076 6.62065 14.3415ZM13.0573 14.5804C12.814 13.2732 12.4573 11.9954 11.9907 10.7487C13.0329 10.6015 14.1795 10.6398 15.4345 10.8576C15.1918 12.4054 14.3079 13.742 13.0573 14.5804Z" fill="#000A14" stroke="#000A14" stroke-width="0.28125"/>
</svg>
