<svg width="24" height="24" viewBox="0 0 24 24" fill="none" xmlns="http://www.w3.org/2000/svg">
<path fill-rule="evenodd" clip-rule="evenodd" d="M12 4C7.58 4 4 7.67055 4 12.2024C4 15.8319 6.29 18.8975 9.47 19.9843C9.87 20.0561 10.02 19.81 10.02 19.5947C10.02 19.3999 10.01 18.754 10.01 18.067C8 18.4464 7.48 17.5646 7.32 17.1033C7.23 16.8674 6.84 16.1395 6.5 15.9447C6.22 15.7909 5.82 15.4115 6.49 15.4013C7.12 15.391 7.57 15.9959 7.72 16.242C8.44 17.4826 9.59 17.134 10.05 16.9187C10.12 16.3855 10.33 16.0267 10.56 15.8216C8.78 15.6166 6.92 14.9091 6.92 11.7717C6.92 10.8797 7.23 10.1415 7.74 9.56735C7.66 9.36229 7.38 8.52155 7.82 7.39372C7.82 7.39372 8.49 7.17841 10.02 8.23446C10.66 8.04991 11.34 7.95763 12.02 7.95763C12.7 7.95763 13.38 8.04991 14.02 8.23446C15.55 7.16816 16.22 7.39372 16.22 7.39372C16.66 8.52155 16.38 9.36229 16.3 9.56735C16.81 10.1415 17.12 10.8695 17.12 11.7717C17.12 14.9194 15.25 15.6166 13.47 15.8216C13.76 16.078 14.01 16.5701 14.01 17.3391C14.01 18.4361 14 19.3179 14 19.5947C14 19.81 14.15 20.0664 14.55 19.9843C17.71 18.8975 20 15.8216 20 12.2024C20 7.67055 16.42 4 12 4Z" fill="#000A14"/>
</svg>
