<svg width="24" height="24" viewBox="0 0 24 24" fill="none" xmlns="http://www.w3.org/2000/svg">
<path d="M12 6.442C14.136 6.442 14.3893 6.45 15.2333 6.48867C17.4013 6.58733 18.414 7.616 18.5127 9.768C18.5513 10.6113 18.5587 10.8647 18.5587 13.0007C18.5587 15.1373 18.5507 15.39 18.5127 16.2333C18.4133 18.3833 17.4033 19.414 15.2333 19.5127C14.3893 19.5513 14.1373 19.5593 12 19.5593C9.864 19.5593 9.61067 19.5513 8.76733 19.5127C6.594 19.4133 5.58667 18.38 5.488 16.2327C5.44933 15.3893 5.44133 15.1367 5.44133 13C5.44133 10.864 5.45 10.6113 5.488 9.76733C5.58733 7.616 6.59733 6.58667 8.76733 6.488C9.61133 6.45 9.864 6.442 12 6.442ZM12 5C9.82733 5 9.55533 5.00933 8.702 5.048C5.79667 5.18133 4.182 6.79333 4.04867 9.70133C4.00933 10.5553 4 10.8273 4 13C4 15.1727 4.00933 15.4453 4.048 16.2987C4.18133 19.204 5.79333 20.8187 8.70133 20.952C9.55533 20.9907 9.82733 21 12 21C14.1727 21 14.4453 20.9907 15.2987 20.952C18.2013 20.8187 19.82 19.2067 19.9513 16.2987C19.9907 15.4453 20 15.1727 20 13C20 10.8273 19.9907 10.5553 19.952 9.702C19.8213 6.79933 18.2073 5.182 15.2993 5.04867C14.4453 5.00933 14.1727 5 12 5V5ZM12 8.892C9.73133 8.892 7.892 10.7313 7.892 13C7.892 15.2687 9.73133 17.1087 12 17.1087C14.2687 17.1087 16.108 15.2693 16.108 13C16.108 10.7313 14.2687 8.892 12 8.892ZM12 15.6667C10.5273 15.6667 9.33333 14.4733 9.33333 13C9.33333 11.5273 10.5273 10.3333 12 10.3333C13.4727 10.3333 14.6667 11.5273 14.6667 13C14.6667 14.4733 13.4727 15.6667 12 15.6667ZM16.2707 7.77C15.74 7.77 15.31 8.2 15.31 8.73C15.31 9.26 15.74 9.69 16.2707 9.69C16.8007 9.69 17.23 9.26 17.23 8.73C17.23 8.2 16.8007 7.77 16.2707 7.77Z" fill="#000A14"/>
</svg>
