<svg width="24" height="24" viewBox="0 0 24 24" fill="none" xmlns="http://www.w3.org/2000/svg">
<path fill-rule="evenodd" clip-rule="evenodd" d="M14.9782 16.1951C16.8588 15.9557 18.4962 14.7205 18.702 13.5918C19.0262 11.8139 18.9995 9.25305 18.9995 9.25305C18.9995 5.78217 16.8663 4.7648 16.8663 4.7648C15.7907 4.23818 13.9438 4.01672 12.025 4H11.9779C10.059 4.01672 8.21334 4.23818 7.13769 4.7648C7.13769 4.7648 5.00444 5.78217 5.00444 9.25305C5.00444 9.46347 5.00342 9.68479 5.00236 9.91519C4.99941 10.5551 4.99613 11.265 5.01349 12.006C5.09096 15.4003 5.59725 18.7456 8.54116 19.5762C9.89853 19.9592 11.0639 20.0394 12.0025 19.9844C13.7046 19.8838 14.6601 19.3369 14.6601 19.3369L14.604 18.0204C14.604 18.0204 13.3876 18.4292 12.0216 18.3794C10.6682 18.3299 9.23942 18.2238 9.02052 16.4524C9.0003 16.2968 8.99019 16.1304 8.99019 15.9557C8.99019 15.9557 10.3188 16.3019 12.0025 16.3841C13.0321 16.4345 13.9976 16.3198 14.9782 16.1951ZM16.4834 13.7265V9.52386C16.4834 8.66493 16.2782 7.98237 15.8662 7.47739C15.4412 6.97241 14.8847 6.71354 14.194 6.71354C13.3946 6.71354 12.7894 7.04103 12.3893 7.69609L12.0002 8.39132L11.6111 7.69609C11.2109 7.04103 10.6057 6.71354 9.80641 6.71354C9.1156 6.71354 8.55909 6.97241 8.13416 7.47739C7.72208 7.98237 7.51693 8.66493 7.51693 9.52386V13.7265H9.0788V9.64738C9.0788 8.78751 9.41819 8.35106 10.097 8.35106C10.8476 8.35106 11.2239 8.8688 11.2239 9.89255V12.1253H12.7765V9.89255C12.7765 8.8688 13.1527 8.35106 13.9033 8.35106C14.5821 8.35106 14.9215 8.78751 14.9215 9.64738V13.7265H16.4834Z" fill="#000A14"/>
</svg>
