<svg xmlns="http://www.w3.org/2000/svg" width="44" height="44" fill="none">
  <rect width="44" height="44" fill="url(#a)" rx="22"/>
  <path stroke="#000A14" stroke-linecap="round" stroke-linejoin="round" stroke-width="2" d="M30 19h-9a2 2 0 0 0-2 2v9a2 2 0 0 0 2 2h9a2 2 0 0 0 2-2v-9a2 2 0 0 0-2-2Z"/>
  <path stroke="#000A14" stroke-linecap="round" stroke-linejoin="round" stroke-width="2" d="M15 25h-1a2 2 0 0 1-2-2v-9a2 2 0 0 1 2-2h9a2 2 0 0 1 2 2v1"/>
  <defs>
    <linearGradient id="a" x1="44" x2="0" y1="22" y2="22" gradientUnits="userSpaceOnUse">
      <stop stop-color="#CFA7FB"/>
      <stop offset="1" stop-color="#B4CBFC"/>
    </linearGradient>
  </defs>
</svg>
