<svg xmlns="http://www.w3.org/2000/svg" width="44" height="44" fill="none">
  <rect width="44" height="44" fill="url(#a)" rx="22"/>
  <g clip-path="url(#b)">
    <path fill="#333B43" stroke="#000A14" d="M27.914 14.12A5 5 0 0 1 30.5 18.5a4.999 4.999 0 0 1-4 4.9v-1.026a4.001 4.001 0 0 0 1.13-7.261l.284-.994ZM12.517 31.5a7.5 7.5 0 0 1 14.966 0h-1.002a6.5 6.5 0 0 0-12.962 0h-1.002Zm7.483-9a5.498 5.498 0 0 1-5.5-5.5c0-3.039 2.461-5.5 5.5-5.5s5.5 2.461 5.5 5.5-2.461 5.5-5.5 5.5Zm0-1c2.486 0 4.5-2.014 4.5-4.5s-2.014-4.5-4.5-4.5a4.499 4.499 0 0 0-4.5 4.5 4.5 4.5 0 0 0 4.5 4.5Zm8.116 4.794.411-.915a7.502 7.502 0 0 1 3.956 6.121h-1.002a6.5 6.5 0 0 0-3.365-5.206Z"/>
  </g>
  <defs>
    <linearGradient id="a" x1="44" x2="0" y1="22" y2="22" gradientUnits="userSpaceOnUse">
      <stop stop-color="#CFA7FB"/>
      <stop offset="1" stop-color="#B4CBFC"/>
    </linearGradient>
    <clipPath id="b">
      <path fill="#fff" d="M10 10h24v24H10z"/>
    </clipPath>
  </defs>
</svg>
