<svg width="1920" height="6924" viewBox="0 0 1920 6924" fill="none" xmlns="http://www.w3.org/2000/svg">
<circle opacity="0.2" cx="90" cy="5977.99" r="620" fill="url(#paint0_radial_10354_28002)"/>
<circle opacity="0.2" cx="1830.67" cy="4794.66" r="620" fill="url(#paint1_radial_10354_28002)"/>
<circle opacity="0.12" cx="-6" cy="3814" r="620" fill="url(#paint2_radial_10354_28002)"/>
<circle opacity="0.2" cx="1840" cy="2659.99" r="620" fill="url(#paint3_radial_10354_28002)"/>
<circle opacity="0.2" cx="-1.33301" cy="-1.33594" r="620" fill="url(#paint4_radial_10354_28002)"/>
<circle cx="89.3347" cy="6067.99" r="854.667" stroke="url(#paint5_radial_10354_28002)"/>
<circle cx="89.3347" cy="6067.99" r="854.667" stroke="url(#paint6_radial_10354_28002)" stroke-opacity="0.7"/>
<circle cx="89.3347" cy="6067.99" r="854.667" stroke="url(#paint7_radial_10354_28002)"/>
<circle cx="89.3347" cy="6067.99" r="854.667" stroke="url(#paint8_radial_10354_28002)"/>
<circle cx="89.335" cy="6067.99" r="680" stroke="url(#paint9_radial_10354_28002)"/>
<circle cx="89.335" cy="6067.99" r="680" stroke="url(#paint10_radial_10354_28002)" stroke-opacity="0.7"/>
<circle cx="89.335" cy="6067.99" r="680" stroke="url(#paint11_radial_10354_28002)"/>
<circle cx="89.335" cy="6067.99" r="680" stroke="url(#paint12_radial_10354_28002)"/>
<path d="M2607.13 5166.31L2884.67 4574.53L2291.1 4850.76C2125.67 4927.72 1934.7 4927.72 1769.46 4850.76L1176.08 4573.97L1453.05 5165.93C1530.23 5330.92 1530.23 5521.37 1452.87 5686.17L1175.33 6277.95L1768.9 6001.72C1934.33 5924.75 2125.3 5924.75 2290.54 6001.91L2883.91 6278.7L2606.94 5686.73C2529.77 5521.75 2529.96 5331.29 2607.13 5166.49V5166.31Z" stroke="url(#paint13_radial_10354_28002)"/>
<path d="M2607.13 5166.31L2884.67 4574.53L2291.1 4850.76C2125.67 4927.72 1934.7 4927.72 1769.46 4850.76L1176.08 4573.97L1453.05 5165.93C1530.23 5330.92 1530.23 5521.37 1452.87 5686.17L1175.33 6277.95L1768.9 6001.72C1934.33 5924.75 2125.3 5924.75 2290.54 6001.91L2883.91 6278.7L2606.94 5686.73C2529.77 5521.75 2529.96 5331.29 2607.13 5166.49V5166.31Z" stroke="url(#paint14_radial_10354_28002)" stroke-opacity="0.7"/>
<path d="M2607.13 5166.31L2884.67 4574.53L2291.1 4850.76C2125.67 4927.72 1934.7 4927.72 1769.46 4850.76L1176.08 4573.97L1453.05 5165.93C1530.23 5330.92 1530.23 5521.37 1452.87 5686.17L1175.33 6277.95L1768.9 6001.72C1934.33 5924.75 2125.3 5924.75 2290.54 6001.91L2883.91 6278.7L2606.94 5686.73C2529.77 5521.75 2529.96 5331.29 2607.13 5166.49V5166.31Z" stroke="url(#paint15_radial_10354_28002)"/>
<path d="M2607.13 5166.31L2884.67 4574.53L2291.1 4850.76C2125.67 4927.72 1934.7 4927.72 1769.46 4850.76L1176.08 4573.97L1453.05 5165.93C1530.23 5330.92 1530.23 5521.37 1452.87 5686.17L1175.33 6277.95L1768.9 6001.72C1934.33 5924.75 2125.3 5924.75 2290.54 6001.91L2883.91 6278.7L2606.94 5686.73C2529.77 5521.75 2529.96 5331.29 2607.13 5166.49V5166.31Z" stroke="url(#paint16_radial_10354_28002)"/>
<path d="M2414.45 5253.12L2599.33 4858.91L2203.93 5042.91C2093.73 5094.18 1966.52 5094.18 1856.44 5042.91L1461.17 4858.53L1645.67 5252.87C1697.08 5362.77 1697.08 5489.64 1645.54 5599.42L1460.67 5993.63L1856.07 5809.62C1966.27 5758.35 2093.48 5758.35 2203.56 5809.75L2598.83 5994.13L2414.33 5599.8C2362.92 5489.89 2363.04 5363.02 2414.45 5253.24V5253.12Z" stroke="url(#paint17_radial_10354_28002)"/>
<path d="M2414.45 5253.12L2599.33 4858.91L2203.93 5042.91C2093.73 5094.18 1966.52 5094.18 1856.44 5042.91L1461.17 4858.53L1645.67 5252.87C1697.08 5362.77 1697.08 5489.64 1645.54 5599.42L1460.67 5993.63L1856.07 5809.62C1966.27 5758.35 2093.48 5758.35 2203.56 5809.75L2598.83 5994.13L2414.33 5599.8C2362.92 5489.89 2363.04 5363.02 2414.45 5253.24V5253.12Z" stroke="url(#paint18_radial_10354_28002)" stroke-opacity="0.7"/>
<path d="M2414.45 5253.12L2599.33 4858.91L2203.93 5042.91C2093.73 5094.18 1966.52 5094.18 1856.44 5042.91L1461.17 4858.53L1645.67 5252.87C1697.08 5362.77 1697.08 5489.64 1645.54 5599.42L1460.67 5993.63L1856.07 5809.62C1966.27 5758.35 2093.48 5758.35 2203.56 5809.75L2598.83 5994.13L2414.33 5599.8C2362.92 5489.89 2363.04 5363.02 2414.45 5253.24V5253.12Z" stroke="url(#paint19_radial_10354_28002)"/>
<path d="M2414.45 5253.12L2599.33 4858.91L2203.93 5042.91C2093.73 5094.18 1966.52 5094.18 1856.44 5042.91L1461.17 4858.53L1645.67 5252.87C1697.08 5362.77 1697.08 5489.64 1645.54 5599.42L1460.67 5993.63L1856.07 5809.62C1966.27 5758.35 2093.48 5758.35 2203.56 5809.75L2598.83 5994.13L2414.33 5599.8C2362.92 5489.89 2363.04 5363.02 2414.45 5253.24V5253.12Z" stroke="url(#paint20_radial_10354_28002)"/>
<circle cx="89" cy="3771" r="855" stroke="url(#paint21_radial_10354_28002)"/>
<circle cx="89" cy="3771" r="855" stroke="url(#paint22_radial_10354_28002)" stroke-opacity="0.7"/>
<circle cx="89" cy="3771" r="855" stroke="url(#paint23_radial_10354_28002)"/>
<circle cx="89" cy="3771" r="855" stroke="url(#paint24_radial_10354_28002)"/>
<circle cx="89" cy="3771" r="680" stroke="url(#paint25_radial_10354_28002)"/>
<circle cx="89" cy="3771" r="680" stroke="url(#paint26_radial_10354_28002)" stroke-opacity="0.7"/>
<circle cx="89" cy="3771" r="680" stroke="url(#paint27_radial_10354_28002)"/>
<circle cx="89" cy="3771" r="680" stroke="url(#paint28_radial_10354_28002)"/>
<path d="M2407.36 1774.37L2685 1182.37L2091.21 1458.7C1925.71 1535.7 1734.67 1535.7 1569.36 1458.7L975.752 1181.8L1252.83 1774C1330.04 1939.05 1330.04 2129.58 1252.64 2294.44L975 2886.45L1568.79 2610.12C1734.29 2533.12 1925.33 2533.12 2090.64 2610.3L2684.25 2887.2L2407.17 2295C2329.96 2129.95 2330.15 1939.42 2407.36 1774.56V1774.37Z" stroke="url(#paint29_radial_10354_28002)"/>
<path d="M2407.36 1774.37L2685 1182.37L2091.21 1458.7C1925.71 1535.7 1734.67 1535.7 1569.36 1458.7L975.752 1181.8L1252.83 1774C1330.04 1939.05 1330.04 2129.58 1252.64 2294.44L975 2886.45L1568.79 2610.12C1734.29 2533.12 1925.33 2533.12 2090.64 2610.3L2684.25 2887.2L2407.17 2295C2329.96 2129.95 2330.15 1939.42 2407.36 1774.56V1774.37Z" stroke="url(#paint30_radial_10354_28002)" stroke-opacity="0.7"/>
<path d="M2407.36 1774.37L2685 1182.37L2091.21 1458.7C1925.71 1535.7 1734.67 1535.7 1569.36 1458.7L975.752 1181.8L1252.83 1774C1330.04 1939.05 1330.04 2129.58 1252.64 2294.44L975 2886.45L1568.79 2610.12C1734.29 2533.12 1925.33 2533.12 2090.64 2610.3L2684.25 2887.2L2407.17 2295C2329.96 2129.95 2330.15 1939.42 2407.36 1774.56V1774.37Z" stroke="url(#paint31_radial_10354_28002)"/>
<path d="M2407.36 1774.37L2685 1182.37L2091.21 1458.7C1925.71 1535.7 1734.67 1535.7 1569.36 1458.7L975.752 1181.8L1252.83 1774C1330.04 1939.05 1330.04 2129.58 1252.64 2294.44L975 2886.45L1568.79 2610.12C1734.29 2533.12 1925.33 2533.12 2090.64 2610.3L2684.25 2887.2L2407.17 2295C2329.96 2129.95 2330.15 1939.42 2407.36 1774.56V1774.37Z" stroke="url(#paint32_radial_10354_28002)"/>
<path d="M2214.23 1861.38L2399 1467.41L2003.83 1651.3C1893.69 1702.55 1766.56 1702.55 1656.54 1651.3L1261.5 1467.03L1445.9 1861.14C1497.28 1970.98 1497.28 2097.77 1445.77 2207.49L1261 2601.47L1656.17 2417.57C1766.31 2366.33 1893.44 2366.33 2003.46 2417.69L2398.5 2601.97L2214.1 2207.86C2162.72 2098.02 2162.85 1971.22 2214.23 1861.51V1861.38Z" stroke="url(#paint33_radial_10354_28002)"/>
<path d="M2214.23 1861.38L2399 1467.41L2003.83 1651.3C1893.69 1702.55 1766.56 1702.55 1656.54 1651.3L1261.5 1467.03L1445.9 1861.14C1497.28 1970.98 1497.28 2097.77 1445.77 2207.49L1261 2601.47L1656.17 2417.57C1766.31 2366.33 1893.44 2366.33 2003.46 2417.69L2398.5 2601.97L2214.1 2207.86C2162.72 2098.02 2162.85 1971.22 2214.23 1861.51V1861.38Z" stroke="url(#paint34_radial_10354_28002)" stroke-opacity="0.7"/>
<path d="M2214.23 1861.38L2399 1467.41L2003.83 1651.3C1893.69 1702.55 1766.56 1702.55 1656.54 1651.3L1261.5 1467.03L1445.9 1861.14C1497.28 1970.98 1497.28 2097.77 1445.77 2207.49L1261 2601.47L1656.17 2417.57C1766.31 2366.33 1893.44 2366.33 2003.46 2417.69L2398.5 2601.97L2214.1 2207.86C2162.72 2098.02 2162.85 1971.22 2214.23 1861.51V1861.38Z" stroke="url(#paint35_radial_10354_28002)"/>
<path d="M2214.23 1861.38L2399 1467.41L2003.83 1651.3C1893.69 1702.55 1766.56 1702.55 1656.54 1651.3L1261.5 1467.03L1445.9 1861.14C1497.28 1970.98 1497.28 2097.77 1445.77 2207.49L1261 2601.47L1656.17 2417.57C1766.31 2366.33 1893.44 2366.33 2003.46 2417.69L2398.5 2601.97L2214.1 2207.86C2162.72 2098.02 2162.85 1971.22 2214.23 1861.51V1861.38Z" stroke="url(#paint36_radial_10354_28002)"/>
<circle cx="90" cy="1725" r="855" stroke="url(#paint37_radial_10354_28002)"/>
<circle cx="90" cy="1725" r="855" stroke="url(#paint38_radial_10354_28002)" stroke-opacity="0.7"/>
<circle cx="90" cy="1725" r="855" stroke="url(#paint39_radial_10354_28002)"/>
<circle cx="90" cy="1725" r="855" stroke="url(#paint40_radial_10354_28002)"/>
<circle cx="90" cy="1725" r="680" stroke="url(#paint41_radial_10354_28002)"/>
<circle cx="90" cy="1725" r="680" stroke="url(#paint42_radial_10354_28002)" stroke-opacity="0.7"/>
<circle cx="90" cy="1725" r="680" stroke="url(#paint43_radial_10354_28002)"/>
<circle cx="90" cy="1725" r="680" stroke="url(#paint44_radial_10354_28002)"/>
<path d="M2064.36 -197.298L2342 -789.305L1748.21 -512.973C1582.71 -435.974 1391.67 -435.974 1226.36 -512.973L632.752 -789.867L909.83 -197.672C987.037 -32.6222 987.037 157.907 909.643 322.769L632 914.776L1225.79 638.444C1391.29 561.446 1582.33 561.446 1747.64 638.631L2341.25 915.526L2064.17 323.331C1986.96 158.281 1987.15 -32.2477 2064.36 -197.11V-197.298Z" stroke="url(#paint45_radial_10354_28002)"/>
<path d="M2064.36 -197.298L2342 -789.305L1748.21 -512.973C1582.71 -435.974 1391.67 -435.974 1226.36 -512.973L632.752 -789.867L909.83 -197.672C987.037 -32.6222 987.037 157.907 909.643 322.769L632 914.776L1225.79 638.444C1391.29 561.446 1582.33 561.446 1747.64 638.631L2341.25 915.526L2064.17 323.331C1986.96 158.281 1987.15 -32.2477 2064.36 -197.11V-197.298Z" stroke="url(#paint46_radial_10354_28002)" stroke-opacity="0.7"/>
<path d="M2064.36 -197.298L2342 -789.305L1748.21 -512.973C1582.71 -435.974 1391.67 -435.974 1226.36 -512.973L632.752 -789.867L909.83 -197.672C987.037 -32.6222 987.037 157.907 909.643 322.769L632 914.776L1225.79 638.444C1391.29 561.446 1582.33 561.446 1747.64 638.631L2341.25 915.526L2064.17 323.331C1986.96 158.281 1987.15 -32.2477 2064.36 -197.11V-197.298Z" stroke="url(#paint47_radial_10354_28002)"/>
<path d="M2064.36 -197.298L2342 -789.305L1748.21 -512.973C1582.71 -435.974 1391.67 -435.974 1226.36 -512.973L632.752 -789.867L909.83 -197.672C987.037 -32.6222 987.037 157.907 909.643 322.769L632 914.776L1225.79 638.444C1391.29 561.446 1582.33 561.446 1747.64 638.631L2341.25 915.526L2064.17 323.331C1986.96 158.281 1987.15 -32.2477 2064.36 -197.11V-197.298Z" stroke="url(#paint48_radial_10354_28002)"/>
<path d="M1871.23 -110.287L2056 -504.267L1660.83 -320.368C1550.69 -269.126 1423.56 -269.126 1313.54 -320.368L918.5 -504.641L1102.9 -110.537C1154.28 -0.696213 1154.28 126.1 1102.77 235.816L918 629.795L1313.17 445.896C1423.31 394.654 1550.44 394.654 1660.46 446.021L2055.5 630.294L1871.1 236.19C1819.72 126.349 1819.85 -0.447005 1871.23 -110.163V-110.287Z" stroke="url(#paint49_radial_10354_28002)"/>
<path d="M1871.23 -110.287L2056 -504.267L1660.83 -320.368C1550.69 -269.126 1423.56 -269.126 1313.54 -320.368L918.5 -504.641L1102.9 -110.537C1154.28 -0.696213 1154.28 126.1 1102.77 235.816L918 629.795L1313.17 445.896C1423.31 394.654 1550.44 394.654 1660.46 446.021L2055.5 630.294L1871.1 236.19C1819.72 126.349 1819.85 -0.447005 1871.23 -110.163V-110.287Z" stroke="url(#paint50_radial_10354_28002)" stroke-opacity="0.7"/>
<path d="M1871.23 -110.287L2056 -504.267L1660.83 -320.368C1550.69 -269.126 1423.56 -269.126 1313.54 -320.368L918.5 -504.641L1102.9 -110.537C1154.28 -0.696213 1154.28 126.1 1102.77 235.816L918 629.795L1313.17 445.896C1423.31 394.654 1550.44 394.654 1660.46 446.021L2055.5 630.294L1871.1 236.19C1819.72 126.349 1819.85 -0.447005 1871.23 -110.163V-110.287Z" stroke="url(#paint51_radial_10354_28002)"/>
<path d="M1871.23 -110.287L2056 -504.267L1660.83 -320.368C1550.69 -269.126 1423.56 -269.126 1313.54 -320.368L918.5 -504.641L1102.9 -110.537C1154.28 -0.696213 1154.28 126.1 1102.77 235.816L918 629.795L1313.17 445.896C1423.31 394.654 1550.44 394.654 1660.46 446.021L2055.5 630.294L1871.1 236.19C1819.72 126.349 1819.85 -0.447005 1871.23 -110.163V-110.287Z" stroke="url(#paint52_radial_10354_28002)"/>
<defs>
<radialGradient id="paint0_radial_10354_28002" cx="0" cy="0" r="1" gradientUnits="userSpaceOnUse" gradientTransform="translate(90 5977.99) rotate(90) scale(620)">
<stop stop-color="#9747FF"/>
<stop offset="1" stop-color="#9747FF" stop-opacity="0"/>
</radialGradient>
<radialGradient id="paint1_radial_10354_28002" cx="0" cy="0" r="1" gradientUnits="userSpaceOnUse" gradientTransform="translate(1830.67 4794.66) rotate(90) scale(620)">
<stop stop-color="#9747FF"/>
<stop offset="1" stop-color="#9747FF" stop-opacity="0"/>
</radialGradient>
<radialGradient id="paint2_radial_10354_28002" cx="0" cy="0" r="1" gradientUnits="userSpaceOnUse" gradientTransform="translate(-6 3814) rotate(90) scale(620)">
<stop stop-color="#2028F6"/>
<stop offset="1" stop-color="#8721F5" stop-opacity="0"/>
</radialGradient>
<radialGradient id="paint3_radial_10354_28002" cx="0" cy="0" r="1" gradientUnits="userSpaceOnUse" gradientTransform="translate(1840 2659.99) rotate(90) scale(620)">
<stop stop-color="#2028F6"/>
<stop offset="1" stop-color="#8721F5" stop-opacity="0"/>
</radialGradient>
<radialGradient id="paint4_radial_10354_28002" cx="0" cy="0" r="1" gradientUnits="userSpaceOnUse" gradientTransform="translate(-1.33301 -1.33594) rotate(90) scale(620)">
<stop stop-color="#9747FF"/>
<stop offset="1" stop-color="#9747FF" stop-opacity="0"/>
</radialGradient>
<radialGradient id="paint5_radial_10354_28002" cx="0" cy="0" r="1" gradientUnits="userSpaceOnUse" gradientTransform="translate(-743.003 5235.87) rotate(90) scale(511.906 572.487)">
<stop stop-color="#565A5E"/>
<stop offset="1" stop-color="#333B43" stop-opacity="0"/>
</radialGradient>
<radialGradient id="paint6_radial_10354_28002" cx="0" cy="0" r="1" gradientUnits="userSpaceOnUse" gradientTransform="translate(-765.591 7029.24) rotate(-90) scale(847.526 947.826)">
<stop stop-color="#565A5E"/>
<stop offset="1" stop-color="#333B43" stop-opacity="0"/>
</radialGradient>
<radialGradient id="paint7_radial_10354_28002" cx="0" cy="0" r="1" gradientUnits="userSpaceOnUse" gradientTransform="translate(945.051 4808.72) rotate(90) scale(1193.32 1193.32)">
<stop stop-color="#5956E9"/>
<stop offset="1" stop-color="#565A5E" stop-opacity="0"/>
</radialGradient>
<radialGradient id="paint8_radial_10354_28002" cx="0" cy="0" r="1" gradientUnits="userSpaceOnUse" gradientTransform="translate(137.917 7036.02) rotate(-101.516) scale(837.26 973.017)">
<stop stop-color="#5956E9" stop-opacity="0.7"/>
<stop offset="1" stop-color="#5956E9" stop-opacity="0"/>
</radialGradient>
<radialGradient id="paint9_radial_10354_28002" cx="0" cy="0" r="1" gradientUnits="userSpaceOnUse" gradientTransform="translate(-572.899 5405.93) rotate(90) scale(407.289 455.489)">
<stop stop-color="#565A5E"/>
<stop offset="1" stop-color="#333B43" stop-opacity="0"/>
</radialGradient>
<radialGradient id="paint10_radial_10354_28002" cx="0" cy="0" r="1" gradientUnits="userSpaceOnUse" gradientTransform="translate(-590.871 6832.79) rotate(-90) scale(674.319 754.12)">
<stop stop-color="#565A5E"/>
<stop offset="1" stop-color="#333B43" stop-opacity="0"/>
</radialGradient>
<radialGradient id="paint11_radial_10354_28002" cx="0" cy="0" r="1" gradientUnits="userSpaceOnUse" gradientTransform="translate(770.17 5066.07) rotate(90) scale(949.441 949.441)">
<stop stop-color="#5956E9"/>
<stop offset="1" stop-color="#565A5E" stop-opacity="0"/>
</radialGradient>
<radialGradient id="paint12_radial_10354_28002" cx="0" cy="0" r="1" gradientUnits="userSpaceOnUse" gradientTransform="translate(127.989 6838.18) rotate(-101.516) scale(666.15 774.163)">
<stop stop-color="#5956E9" stop-opacity="0.7"/>
<stop offset="1" stop-color="#5956E9" stop-opacity="0"/>
</radialGradient>
<radialGradient id="paint13_radial_10354_28002" cx="0" cy="0" r="1" gradientUnits="userSpaceOnUse" gradientTransform="translate(2862.34 4596.45) rotate(90) scale(510.527 572.487)">
<stop stop-color="#565A5E"/>
<stop offset="1" stop-color="#333B43" stop-opacity="0"/>
</radialGradient>
<radialGradient id="paint14_radial_10354_28002" cx="0" cy="0" r="1" gradientUnits="userSpaceOnUse" gradientTransform="translate(2884.92 6384.98) rotate(-90) scale(845.243 947.826)">
<stop stop-color="#565A5E"/>
<stop offset="1" stop-color="#333B43" stop-opacity="0"/>
</radialGradient>
<radialGradient id="paint15_radial_10354_28002" cx="0" cy="0" r="1" gradientUnits="userSpaceOnUse" gradientTransform="translate(1174.28 4170.45) rotate(90) scale(1190.1 1193.32)">
<stop stop-color="#5956E9"/>
<stop offset="1" stop-color="#565A5E" stop-opacity="0"/>
</radialGradient>
<radialGradient id="paint16_radial_10354_28002" cx="0" cy="0" r="1" gradientUnits="userSpaceOnUse" gradientTransform="translate(1981.42 6391.75) rotate(-78.4539) scale(835.094 972.912)">
<stop stop-color="#5956E9" stop-opacity="0.7"/>
<stop offset="1" stop-color="#5956E9" stop-opacity="0"/>
</radialGradient>
<radialGradient id="paint17_radial_10354_28002" cx="0" cy="0" r="1" gradientUnits="userSpaceOnUse" gradientTransform="translate(2584.46 4873.51) rotate(90) scale(340.086 381.36)">
<stop stop-color="#565A5E"/>
<stop offset="1" stop-color="#333B43" stop-opacity="0"/>
</radialGradient>
<radialGradient id="paint18_radial_10354_28002" cx="0" cy="0" r="1" gradientUnits="userSpaceOnUse" gradientTransform="translate(2599.5 6064.93) rotate(-90) scale(563.056 631.391)">
<stop stop-color="#565A5E"/>
<stop offset="1" stop-color="#333B43" stop-opacity="0"/>
</radialGradient>
<radialGradient id="paint19_radial_10354_28002" cx="0" cy="0" r="1" gradientUnits="userSpaceOnUse" gradientTransform="translate(1459.97 4589.73) rotate(90) scale(792.782 794.924)">
<stop stop-color="#5956E9"/>
<stop offset="1" stop-color="#565A5E" stop-opacity="0"/>
</radialGradient>
<radialGradient id="paint20_radial_10354_28002" cx="0" cy="0" r="1" gradientUnits="userSpaceOnUse" gradientTransform="translate(1997.64 6069.44) rotate(-78.4539) scale(556.295 648.102)">
<stop stop-color="#5956E9" stop-opacity="0.7"/>
<stop offset="1" stop-color="#5956E9" stop-opacity="0"/>
</radialGradient>
<radialGradient id="paint21_radial_10354_28002" cx="0" cy="0" r="1" gradientUnits="userSpaceOnUse" gradientTransform="translate(-743.662 2938.55) rotate(90) scale(512.106 572.71)">
<stop stop-color="#565A5E"/>
<stop offset="1" stop-color="#333B43" stop-opacity="0"/>
</radialGradient>
<radialGradient id="paint22_radial_10354_28002" cx="0" cy="0" r="1" gradientUnits="userSpaceOnUse" gradientTransform="translate(-766.259 4732.62) rotate(-90) scale(847.857 948.195)">
<stop stop-color="#565A5E"/>
<stop offset="1" stop-color="#333B43" stop-opacity="0"/>
</radialGradient>
<radialGradient id="paint23_radial_10354_28002" cx="0" cy="0" r="1" gradientUnits="userSpaceOnUse" gradientTransform="translate(945.05 2511.23) rotate(90) scale(1193.78 1193.78)">
<stop stop-color="#5956E9"/>
<stop offset="1" stop-color="#565A5E" stop-opacity="0"/>
</radialGradient>
<radialGradient id="paint24_radial_10354_28002" cx="0" cy="0" r="1" gradientUnits="userSpaceOnUse" gradientTransform="translate(137.601 4739.4) rotate(-101.516) scale(837.586 973.396)">
<stop stop-color="#5956E9" stop-opacity="0.7"/>
<stop offset="1" stop-color="#5956E9" stop-opacity="0"/>
</radialGradient>
<radialGradient id="paint25_radial_10354_28002" cx="0" cy="0" r="1" gradientUnits="userSpaceOnUse" gradientTransform="translate(-573.234 3108.94) rotate(90) scale(407.289 455.489)">
<stop stop-color="#565A5E"/>
<stop offset="1" stop-color="#333B43" stop-opacity="0"/>
</radialGradient>
<radialGradient id="paint26_radial_10354_28002" cx="0" cy="0" r="1" gradientUnits="userSpaceOnUse" gradientTransform="translate(-591.206 4535.79) rotate(-90) scale(674.319 754.12)">
<stop stop-color="#565A5E"/>
<stop offset="1" stop-color="#333B43" stop-opacity="0"/>
</radialGradient>
<radialGradient id="paint27_radial_10354_28002" cx="0" cy="0" r="1" gradientUnits="userSpaceOnUse" gradientTransform="translate(769.835 2769.08) rotate(90) scale(949.441 949.441)">
<stop stop-color="#5956E9"/>
<stop offset="1" stop-color="#565A5E" stop-opacity="0"/>
</radialGradient>
<radialGradient id="paint28_radial_10354_28002" cx="0" cy="0" r="1" gradientUnits="userSpaceOnUse" gradientTransform="translate(127.654 4541.19) rotate(-101.516) scale(666.15 774.163)">
<stop stop-color="#5956E9" stop-opacity="0.7"/>
<stop offset="1" stop-color="#5956E9" stop-opacity="0"/>
</radialGradient>
<radialGradient id="paint29_radial_10354_28002" cx="0" cy="0" r="1" gradientUnits="userSpaceOnUse" gradientTransform="translate(2662.66 1204.29) rotate(90) scale(510.726 572.71)">
<stop stop-color="#565A5E"/>
<stop offset="1" stop-color="#333B43" stop-opacity="0"/>
</radialGradient>
<radialGradient id="paint30_radial_10354_28002" cx="0" cy="0" r="1" gradientUnits="userSpaceOnUse" gradientTransform="translate(2685.26 2993.53) rotate(-90) scale(845.573 948.195)">
<stop stop-color="#565A5E"/>
<stop offset="1" stop-color="#333B43" stop-opacity="0"/>
</radialGradient>
<radialGradient id="paint31_radial_10354_28002" cx="0" cy="0" r="1" gradientUnits="userSpaceOnUse" gradientTransform="translate(973.95 778.126) rotate(90) scale(1190.57 1193.78)">
<stop stop-color="#5956E9"/>
<stop offset="1" stop-color="#565A5E" stop-opacity="0"/>
</radialGradient>
<radialGradient id="paint32_radial_10354_28002" cx="0" cy="0" r="1" gradientUnits="userSpaceOnUse" gradientTransform="translate(1781.4 3000.29) rotate(-78.4539) scale(835.42 973.291)">
<stop stop-color="#5956E9" stop-opacity="0.7"/>
<stop offset="1" stop-color="#5956E9" stop-opacity="0"/>
</radialGradient>
<radialGradient id="paint33_radial_10354_28002" cx="0" cy="0" r="1" gradientUnits="userSpaceOnUse" gradientTransform="translate(2384.13 1482) rotate(90) scale(339.887 381.137)">
<stop stop-color="#565A5E"/>
<stop offset="1" stop-color="#333B43" stop-opacity="0"/>
</radialGradient>
<radialGradient id="paint34_radial_10354_28002" cx="0" cy="0" r="1" gradientUnits="userSpaceOnUse" gradientTransform="translate(2399.17 2672.73) rotate(-90) scale(562.726 631.021)">
<stop stop-color="#565A5E"/>
<stop offset="1" stop-color="#333B43" stop-opacity="0"/>
</radialGradient>
<radialGradient id="paint35_radial_10354_28002" cx="0" cy="0" r="1" gradientUnits="userSpaceOnUse" gradientTransform="translate(1260.3 1198.38) rotate(90) scale(792.318 794.459)">
<stop stop-color="#5956E9"/>
<stop offset="1" stop-color="#565A5E" stop-opacity="0"/>
</radialGradient>
<radialGradient id="paint36_radial_10354_28002" cx="0" cy="0" r="1" gradientUnits="userSpaceOnUse" gradientTransform="translate(1797.66 2677.23) rotate(-78.4539) scale(555.969 647.723)">
<stop stop-color="#5956E9" stop-opacity="0.7"/>
<stop offset="1" stop-color="#5956E9" stop-opacity="0"/>
</radialGradient>
<radialGradient id="paint37_radial_10354_28002" cx="0" cy="0" r="1" gradientUnits="userSpaceOnUse" gradientTransform="translate(-742.662 892.551) rotate(90) scale(512.106 572.71)">
<stop stop-color="#565A5E"/>
<stop offset="1" stop-color="#333B43" stop-opacity="0"/>
</radialGradient>
<radialGradient id="paint38_radial_10354_28002" cx="0" cy="0" r="1" gradientUnits="userSpaceOnUse" gradientTransform="translate(-765.259 2686.62) rotate(-90) scale(847.857 948.195)">
<stop stop-color="#565A5E"/>
<stop offset="1" stop-color="#333B43" stop-opacity="0"/>
</radialGradient>
<radialGradient id="paint39_radial_10354_28002" cx="0" cy="0" r="1" gradientUnits="userSpaceOnUse" gradientTransform="translate(946.05 465.231) rotate(90) scale(1193.78 1193.78)">
<stop stop-color="#5956E9"/>
<stop offset="1" stop-color="#565A5E" stop-opacity="0"/>
</radialGradient>
<radialGradient id="paint40_radial_10354_28002" cx="0" cy="0" r="1" gradientUnits="userSpaceOnUse" gradientTransform="translate(138.601 2693.4) rotate(-101.516) scale(837.586 973.396)">
<stop stop-color="#5956E9" stop-opacity="0.7"/>
<stop offset="1" stop-color="#5956E9" stop-opacity="0"/>
</radialGradient>
<radialGradient id="paint41_radial_10354_28002" cx="0" cy="0" r="1" gradientUnits="userSpaceOnUse" gradientTransform="translate(-572.234 1062.94) rotate(90) scale(407.289 455.489)">
<stop stop-color="#565A5E"/>
<stop offset="1" stop-color="#333B43" stop-opacity="0"/>
</radialGradient>
<radialGradient id="paint42_radial_10354_28002" cx="0" cy="0" r="1" gradientUnits="userSpaceOnUse" gradientTransform="translate(-590.206 2489.79) rotate(-90) scale(674.319 754.12)">
<stop stop-color="#565A5E"/>
<stop offset="1" stop-color="#333B43" stop-opacity="0"/>
</radialGradient>
<radialGradient id="paint43_radial_10354_28002" cx="0" cy="0" r="1" gradientUnits="userSpaceOnUse" gradientTransform="translate(770.835 723.079) rotate(90) scale(949.441 949.441)">
<stop stop-color="#5956E9"/>
<stop offset="1" stop-color="#565A5E" stop-opacity="0"/>
</radialGradient>
<radialGradient id="paint44_radial_10354_28002" cx="0" cy="0" r="1" gradientUnits="userSpaceOnUse" gradientTransform="translate(128.654 2495.19) rotate(-101.516) scale(666.15 774.163)">
<stop stop-color="#5956E9" stop-opacity="0.7"/>
<stop offset="1" stop-color="#5956E9" stop-opacity="0"/>
</radialGradient>
<radialGradient id="paint45_radial_10354_28002" cx="0" cy="0" r="1" gradientUnits="userSpaceOnUse" gradientTransform="translate(2319.66 -767.377) rotate(90) scale(510.726 572.71)">
<stop stop-color="#565A5E"/>
<stop offset="1" stop-color="#333B43" stop-opacity="0"/>
</radialGradient>
<radialGradient id="paint46_radial_10354_28002" cx="0" cy="0" r="1" gradientUnits="userSpaceOnUse" gradientTransform="translate(2342.26 1021.85) rotate(-90) scale(845.573 948.195)">
<stop stop-color="#565A5E"/>
<stop offset="1" stop-color="#333B43" stop-opacity="0"/>
</radialGradient>
<radialGradient id="paint47_radial_10354_28002" cx="0" cy="0" r="1" gradientUnits="userSpaceOnUse" gradientTransform="translate(630.95 -1193.55) rotate(90) scale(1190.57 1193.78)">
<stop stop-color="#5956E9"/>
<stop offset="1" stop-color="#565A5E" stop-opacity="0"/>
</radialGradient>
<radialGradient id="paint48_radial_10354_28002" cx="0" cy="0" r="1" gradientUnits="userSpaceOnUse" gradientTransform="translate(1438.4 1028.62) rotate(-78.4539) scale(835.42 973.291)">
<stop stop-color="#5956E9" stop-opacity="0.7"/>
<stop offset="1" stop-color="#5956E9" stop-opacity="0"/>
</radialGradient>
<radialGradient id="paint49_radial_10354_28002" cx="0" cy="0" r="1" gradientUnits="userSpaceOnUse" gradientTransform="translate(2041.13 -489.673) rotate(90) scale(339.887 381.137)">
<stop stop-color="#565A5E"/>
<stop offset="1" stop-color="#333B43" stop-opacity="0"/>
</radialGradient>
<radialGradient id="paint50_radial_10354_28002" cx="0" cy="0" r="1" gradientUnits="userSpaceOnUse" gradientTransform="translate(2056.17 701.055) rotate(-90) scale(562.726 631.021)">
<stop stop-color="#565A5E"/>
<stop offset="1" stop-color="#333B43" stop-opacity="0"/>
</radialGradient>
<radialGradient id="paint51_radial_10354_28002" cx="0" cy="0" r="1" gradientUnits="userSpaceOnUse" gradientTransform="translate(917.301 -773.287) rotate(90) scale(792.318 794.459)">
<stop stop-color="#5956E9"/>
<stop offset="1" stop-color="#565A5E" stop-opacity="0"/>
</radialGradient>
<radialGradient id="paint52_radial_10354_28002" cx="0" cy="0" r="1" gradientUnits="userSpaceOnUse" gradientTransform="translate(1454.66 705.557) rotate(-78.4539) scale(555.969 647.723)">
<stop stop-color="#5956E9" stop-opacity="0.7"/>
<stop offset="1" stop-color="#5956E9" stop-opacity="0"/>
</radialGradient>
</defs>
</svg>
