<svg width="100%" height="100%" viewBox="0 0 320 3014" fill="none" xmlns="http://www.w3.org/2000/svg">
<circle opacity="0.2" cx="316" cy="2672" r="190" fill="url(#paint0_radial_10518_66283)"/>
<circle opacity="0.2" cx="44.498" cy="44.5" r="180.5" fill="url(#paint1_radial_10518_66283)"/>
<g opacity="0.5">
<path d="M763.109 2558.58L893 2282.26L615.201 2411.24C537.776 2447.18 448.399 2447.18 371.062 2411.24L93.3507 2282L222.978 2558.41C259.098 2635.45 259.098 2724.38 222.891 2801.33L92.999 3077.65L370.798 2948.67C448.223 2912.73 537.6 2912.73 614.938 2948.76L892.648 3078L763.021 2801.59C726.901 2724.55 726.989 2635.62 763.109 2558.67V2558.58Z" stroke="url(#paint2_radial_10518_66283)" stroke-width="2"/>
<path d="M763.109 2558.58L893 2282.26L615.201 2411.24C537.776 2447.18 448.399 2447.18 371.062 2411.24L93.3507 2282L222.978 2558.41C259.098 2635.45 259.098 2724.38 222.891 2801.33L92.999 3077.65L370.798 2948.67C448.223 2912.73 537.6 2912.73 614.938 2948.76L892.648 3078L763.021 2801.59C726.901 2724.55 726.989 2635.62 763.109 2558.67V2558.58Z" stroke="url(#paint3_radial_10518_66283)" stroke-opacity="0.7" stroke-width="2"/>
<path d="M763.109 2558.58L893 2282.26L615.201 2411.24C537.776 2447.18 448.399 2447.18 371.062 2411.24L93.3507 2282L222.978 2558.41C259.098 2635.45 259.098 2724.38 222.891 2801.33L92.999 3077.65L370.798 2948.67C448.223 2912.73 537.6 2912.73 614.938 2948.76L892.648 3078L763.021 2801.59C726.901 2724.55 726.989 2635.62 763.109 2558.67V2558.58Z" stroke="url(#paint4_radial_10518_66283)" stroke-width="2"/>
<path d="M763.109 2558.58L893 2282.26L615.201 2411.24C537.776 2447.18 448.399 2447.18 371.062 2411.24L93.3507 2282L222.978 2558.41C259.098 2635.45 259.098 2724.38 222.891 2801.33L92.999 3077.65L370.798 2948.67C448.223 2912.73 537.6 2912.73 614.938 2948.76L892.648 3078L763.021 2801.59C726.901 2724.55 726.989 2635.62 763.109 2558.67V2558.58Z" stroke="url(#paint5_radial_10518_66283)" stroke-width="2"/>
<path d="M673.213 2592.46L759.875 2407.23L574.531 2493.69C522.874 2517.78 463.242 2517.78 411.644 2493.69L226.359 2407.05L312.845 2592.35C336.943 2643.99 336.943 2703.6 312.786 2755.19L226.124 2940.42L411.468 2853.96C463.125 2829.87 522.757 2829.87 574.355 2854.02L759.64 2940.66L673.154 2755.36C649.056 2703.72 649.114 2644.11 673.213 2592.52V2592.46Z" stroke="url(#paint6_radial_10518_66283)" stroke-width="2"/>
<path d="M673.213 2592.46L759.875 2407.23L574.531 2493.69C522.874 2517.78 463.242 2517.78 411.644 2493.69L226.359 2407.05L312.845 2592.35C336.943 2643.99 336.943 2703.6 312.786 2755.19L226.124 2940.42L411.468 2853.96C463.125 2829.87 522.757 2829.87 574.355 2854.02L759.64 2940.66L673.154 2755.36C649.056 2703.72 649.114 2644.11 673.213 2592.52V2592.46Z" stroke="url(#paint7_radial_10518_66283)" stroke-opacity="0.7" stroke-width="2"/>
<path d="M673.213 2592.46L759.875 2407.23L574.531 2493.69C522.874 2517.78 463.242 2517.78 411.644 2493.69L226.359 2407.05L312.845 2592.35C336.943 2643.99 336.943 2703.6 312.786 2755.19L226.124 2940.42L411.468 2853.96C463.125 2829.87 522.757 2829.87 574.355 2854.02L759.64 2940.66L673.154 2755.36C649.056 2703.72 649.114 2644.11 673.213 2592.52V2592.46Z" stroke="url(#paint8_radial_10518_66283)" stroke-width="2"/>
<path d="M673.213 2592.46L759.875 2407.23L574.531 2493.69C522.874 2517.78 463.242 2517.78 411.644 2493.69L226.359 2407.05L312.845 2592.35C336.943 2643.99 336.943 2703.6 312.786 2755.19L226.124 2940.42L411.468 2853.96C463.125 2829.87 522.757 2829.87 574.355 2854.02L759.64 2940.66L673.154 2755.36C649.056 2703.72 649.114 2644.11 673.213 2592.52V2592.46Z" stroke="url(#paint9_radial_10518_66283)" stroke-width="2"/>
</g>
<g opacity="0.5">
<ellipse cx="-166.259" cy="948.322" rx="400" ry="400.002" stroke="url(#paint10_radial_10518_66283)" stroke-width="2"/>
<ellipse cx="-166.259" cy="948.322" rx="400" ry="400.002" stroke="url(#paint11_radial_10518_66283)" stroke-opacity="0.7" stroke-width="2"/>
<ellipse cx="-166.259" cy="948.322" rx="400" ry="400.002" stroke="url(#paint12_radial_10518_66283)" stroke-width="2"/>
<ellipse cx="-166.259" cy="948.322" rx="400" ry="400.002" stroke="url(#paint13_radial_10518_66283)" stroke-width="2"/>
<ellipse cx="-166.269" cy="936.447" rx="318.751" ry="318.752" stroke="url(#paint14_radial_10518_66283)" stroke-width="2"/>
<ellipse cx="-166.269" cy="936.447" rx="318.751" ry="318.752" stroke="url(#paint15_radial_10518_66283)" stroke-opacity="0.7" stroke-width="2"/>
<ellipse cx="-166.269" cy="936.447" rx="318.751" ry="318.752" stroke="url(#paint16_radial_10518_66283)" stroke-width="2"/>
<ellipse cx="-166.269" cy="936.447" rx="318.751" ry="318.752" stroke="url(#paint17_radial_10518_66283)" stroke-width="2"/>
</g>
<g opacity="0.5">
<path d="M580.109 -137.415L710 -413.738L432.201 -284.758C354.776 -248.819 265.399 -248.819 188.062 -284.758L-89.6493 -414L39.9784 -137.59C76.0984 -60.5525 76.0984 28.3777 39.8905 105.328L-90.001 381.65L187.798 252.671C265.223 216.731 354.6 216.731 431.938 252.758L709.648 382L580.021 105.59C543.901 28.5526 543.989 -60.3777 580.109 -137.328V-137.415Z" stroke="url(#paint18_radial_10518_66283)" stroke-width="2"/>
<path d="M580.109 -137.415L710 -413.738L432.201 -284.758C354.776 -248.819 265.399 -248.819 188.062 -284.758L-89.6493 -414L39.9784 -137.59C76.0984 -60.5525 76.0984 28.3777 39.8905 105.328L-90.001 381.65L187.798 252.671C265.223 216.731 354.6 216.731 431.938 252.758L709.648 382L580.021 105.59C543.901 28.5526 543.989 -60.3777 580.109 -137.328V-137.415Z" stroke="url(#paint19_radial_10518_66283)" stroke-opacity="0.7" stroke-width="2"/>
<path d="M580.109 -137.415L710 -413.738L432.201 -284.758C354.776 -248.819 265.399 -248.819 188.062 -284.758L-89.6493 -414L39.9784 -137.59C76.0984 -60.5525 76.0984 28.3777 39.8905 105.328L-90.001 381.65L187.798 252.671C265.223 216.731 354.6 216.731 431.938 252.758L709.648 382L580.021 105.59C543.901 28.5526 543.989 -60.3777 580.109 -137.328V-137.415Z" stroke="url(#paint20_radial_10518_66283)" stroke-width="2"/>
<path d="M580.109 -137.415L710 -413.738L432.201 -284.758C354.776 -248.819 265.399 -248.819 188.062 -284.758L-89.6493 -414L39.9784 -137.59C76.0984 -60.5525 76.0984 28.3777 39.8905 105.328L-90.001 381.65L187.798 252.671C265.223 216.731 354.6 216.731 431.938 252.758L709.648 382L580.021 105.59C543.901 28.5526 543.989 -60.3777 580.109 -137.328V-137.415Z" stroke="url(#paint21_radial_10518_66283)" stroke-width="2"/>
<path d="M489.359 -96.6744L575.615 -280.17L391.139 -194.519C339.724 -170.653 280.372 -170.653 229.015 -194.519L44.5981 -280.344L130.679 -96.7905C154.665 -45.6325 154.665 13.4227 130.621 64.5226L44.3646 248.018L228.84 162.367C280.256 138.501 339.608 138.501 390.964 162.425L575.382 248.25L489.301 64.6968C465.315 13.5388 465.373 -45.5164 489.359 -96.6164V-96.6744Z" stroke="url(#paint22_radial_10518_66283)" stroke-width="2"/>
<path d="M489.359 -96.6744L575.615 -280.17L391.139 -194.519C339.724 -170.653 280.372 -170.653 229.015 -194.519L44.5981 -280.344L130.679 -96.7905C154.665 -45.6325 154.665 13.4227 130.621 64.5226L44.3646 248.018L228.84 162.367C280.256 138.501 339.608 138.501 390.964 162.425L575.382 248.25L489.301 64.6968C465.315 13.5388 465.373 -45.5164 489.359 -96.6164V-96.6744Z" stroke="url(#paint23_radial_10518_66283)" stroke-opacity="0.7" stroke-width="2"/>
<path d="M489.359 -96.6744L575.615 -280.17L391.139 -194.519C339.724 -170.653 280.372 -170.653 229.015 -194.519L44.5981 -280.344L130.679 -96.7905C154.665 -45.6325 154.665 13.4227 130.621 64.5226L44.3646 248.018L228.84 162.367C280.256 138.501 339.608 138.501 390.964 162.425L575.382 248.25L489.301 64.6968C465.315 13.5388 465.373 -45.5164 489.359 -96.6164V-96.6744Z" stroke="url(#paint24_radial_10518_66283)" stroke-width="2"/>
<path d="M489.359 -96.6744L575.615 -280.17L391.139 -194.519C339.724 -170.653 280.372 -170.653 229.015 -194.519L44.5981 -280.344L130.679 -96.7905C154.665 -45.6325 154.665 13.4227 130.621 64.5226L44.3646 248.018L228.84 162.367C280.256 138.501 339.608 138.501 390.964 162.425L575.382 248.25L489.301 64.6968C465.315 13.5388 465.373 -45.5164 489.359 -96.6164V-96.6744Z" stroke="url(#paint25_radial_10518_66283)" stroke-width="2"/>
</g>
<defs>
<radialGradient id="paint0_radial_10518_66283" cx="0" cy="0" r="1" gradientUnits="userSpaceOnUse" gradientTransform="translate(316 2672) rotate(90) scale(190)">
<stop stop-color="#2028F6"/>
<stop offset="1" stop-color="#8721F5" stop-opacity="0"/>
</radialGradient>
<radialGradient id="paint1_radial_10518_66283" cx="0" cy="0" r="1" gradientUnits="userSpaceOnUse" gradientTransform="translate(44.498 44.5) rotate(90) scale(180.5)">
<stop stop-color="#9747FF"/>
<stop offset="1" stop-color="#9747FF" stop-opacity="0"/>
</radialGradient>
<radialGradient id="paint2_radial_10518_66283" cx="0" cy="0" r="1" gradientUnits="userSpaceOnUse" gradientTransform="translate(882.55 2292.5) rotate(90) scale(238.384 267.935)">
<stop stop-color="#565A5E"/>
<stop offset="1" stop-color="#333B43" stop-opacity="0"/>
</radialGradient>
<radialGradient id="paint3_radial_10518_66283" cx="0" cy="0" r="1" gradientUnits="userSpaceOnUse" gradientTransform="translate(893.121 3127.63) rotate(-90) scale(394.675 443.601)">
<stop stop-color="#565A5E"/>
<stop offset="1" stop-color="#333B43" stop-opacity="0"/>
</radialGradient>
<radialGradient id="paint4_radial_10518_66283" cx="0" cy="0" r="1" gradientUnits="userSpaceOnUse" gradientTransform="translate(92.5079 2093.58) rotate(90) scale(555.702 558.495)">
<stop stop-color="#5956E9"/>
<stop offset="1" stop-color="#565A5E" stop-opacity="0"/>
</radialGradient>
<radialGradient id="paint5_radial_10518_66283" cx="0" cy="0" r="1" gradientUnits="userSpaceOnUse" gradientTransform="translate(470.262 3130.79) rotate(-78.4279) scale(389.972 455.299)">
<stop stop-color="#5956E9" stop-opacity="0.7"/>
<stop offset="1" stop-color="#5956E9" stop-opacity="0"/>
</radialGradient>
<radialGradient id="paint6_radial_10518_66283" cx="0" cy="0" r="1" gradientUnits="userSpaceOnUse" gradientTransform="translate(752.903 2414.09) rotate(90) scale(159.801 178.763)">
<stop stop-color="#565A5E"/>
<stop offset="1" stop-color="#333B43" stop-opacity="0"/>
</radialGradient>
<radialGradient id="paint7_radial_10518_66283" cx="0" cy="0" r="1" gradientUnits="userSpaceOnUse" gradientTransform="translate(759.956 2973.92) rotate(-90) scale(264.572 295.965)">
<stop stop-color="#565A5E"/>
<stop offset="1" stop-color="#333B43" stop-opacity="0"/>
</radialGradient>
<radialGradient id="paint8_radial_10518_66283" cx="0" cy="0" r="1" gradientUnits="userSpaceOnUse" gradientTransform="translate(225.796 2280.75) rotate(90) scale(372.517 372.621)">
<stop stop-color="#5956E9"/>
<stop offset="1" stop-color="#565A5E" stop-opacity="0"/>
</radialGradient>
<radialGradient id="paint9_radial_10518_66283" cx="0" cy="0" r="1" gradientUnits="userSpaceOnUse" gradientTransform="translate(477.829 2976.04) rotate(-78.4811) scale(261.37 303.828)">
<stop stop-color="#5956E9" stop-opacity="0.7"/>
<stop offset="1" stop-color="#5956E9" stop-opacity="0"/>
</radialGradient>
<radialGradient id="paint10_radial_10518_66283" cx="0" cy="0" r="1" gradientUnits="userSpaceOnUse" gradientTransform="translate(-555.809 558.871) rotate(90) scale(239.583 267.935)">
<stop stop-color="#565A5E"/>
<stop offset="1" stop-color="#333B43" stop-opacity="0"/>
</radialGradient>
<radialGradient id="paint11_radial_10518_66283" cx="0" cy="0" r="1" gradientUnits="userSpaceOnUse" gradientTransform="translate(-566.381 1398.2) rotate(-90) scale(396.66 443.601)">
<stop stop-color="#565A5E"/>
<stop offset="1" stop-color="#333B43" stop-opacity="0"/>
</radialGradient>
<radialGradient id="paint12_radial_10518_66283" cx="0" cy="0" r="1" gradientUnits="userSpaceOnUse" gradientTransform="translate(234.232 358.954) rotate(90) scale(558.497 558.495)">
<stop stop-color="#5956E9"/>
<stop offset="1" stop-color="#565A5E" stop-opacity="0"/>
</radialGradient>
<radialGradient id="paint13_radial_10518_66283" cx="0" cy="0" r="1" gradientUnits="userSpaceOnUse" gradientTransform="translate(-143.522 1401.38) rotate(-101.516) scale(391.855 455.391)">
<stop stop-color="#5956E9" stop-opacity="0.7"/>
<stop offset="1" stop-color="#5956E9" stop-opacity="0"/>
</radialGradient>
<radialGradient id="paint14_radial_10518_66283" cx="0" cy="0" r="1" gradientUnits="userSpaceOnUse" gradientTransform="translate(-476.692 626.103) rotate(90) scale(190.917 213.511)">
<stop stop-color="#565A5E"/>
<stop offset="1" stop-color="#333B43" stop-opacity="0"/>
</radialGradient>
<radialGradient id="paint15_radial_10518_66283" cx="0" cy="0" r="1" gradientUnits="userSpaceOnUse" gradientTransform="translate(-485.116 1294.95) rotate(-90) scale(316.089 353.494)">
<stop stop-color="#565A5E"/>
<stop offset="1" stop-color="#333B43" stop-opacity="0"/>
</radialGradient>
<radialGradient id="paint16_radial_10518_66283" cx="0" cy="0" r="1" gradientUnits="userSpaceOnUse" gradientTransform="translate(152.873 466.794) rotate(90) scale(445.053 445.051)">
<stop stop-color="#5956E9"/>
<stop offset="1" stop-color="#565A5E" stop-opacity="0"/>
</radialGradient>
<radialGradient id="paint17_radial_10518_66283" cx="0" cy="0" r="1" gradientUnits="userSpaceOnUse" gradientTransform="translate(-148.15 1297.47) rotate(-101.516) scale(312.26 362.89)">
<stop stop-color="#5956E9" stop-opacity="0.7"/>
<stop offset="1" stop-color="#5956E9" stop-opacity="0"/>
</radialGradient>
<radialGradient id="paint18_radial_10518_66283" cx="0" cy="0" r="1" gradientUnits="userSpaceOnUse" gradientTransform="translate(699.55 -403.503) rotate(90) scale(238.384 267.935)">
<stop stop-color="#565A5E"/>
<stop offset="1" stop-color="#333B43" stop-opacity="0"/>
</radialGradient>
<radialGradient id="paint19_radial_10518_66283" cx="0" cy="0" r="1" gradientUnits="userSpaceOnUse" gradientTransform="translate(710.121 431.629) rotate(-90) scale(394.675 443.601)">
<stop stop-color="#565A5E"/>
<stop offset="1" stop-color="#333B43" stop-opacity="0"/>
</radialGradient>
<radialGradient id="paint20_radial_10518_66283" cx="0" cy="0" r="1" gradientUnits="userSpaceOnUse" gradientTransform="translate(-90.4921 -602.419) rotate(90) scale(555.702 558.495)">
<stop stop-color="#5956E9"/>
<stop offset="1" stop-color="#565A5E" stop-opacity="0"/>
</radialGradient>
<radialGradient id="paint21_radial_10518_66283" cx="0" cy="0" r="1" gradientUnits="userSpaceOnUse" gradientTransform="translate(287.262 434.787) rotate(-78.4279) scale(389.972 455.299)">
<stop stop-color="#5956E9" stop-opacity="0.7"/>
<stop offset="1" stop-color="#5956E9" stop-opacity="0"/>
</radialGradient>
<radialGradient id="paint22_radial_10518_66283" cx="0" cy="0" r="1" gradientUnits="userSpaceOnUse" gradientTransform="translate(568.676 -273.373) rotate(90) scale(158.302 177.925)">
<stop stop-color="#565A5E"/>
<stop offset="1" stop-color="#333B43" stop-opacity="0"/>
</radialGradient>
<radialGradient id="paint23_radial_10518_66283" cx="0" cy="0" r="1" gradientUnits="userSpaceOnUse" gradientTransform="translate(575.696 281.207) rotate(-90) scale(262.089 294.579)">
<stop stop-color="#565A5E"/>
<stop offset="1" stop-color="#333B43" stop-opacity="0"/>
</radialGradient>
<radialGradient id="paint24_radial_10518_66283" cx="0" cy="0" r="1" gradientUnits="userSpaceOnUse" gradientTransform="translate(44.0384 -405.466) rotate(90) scale(369.021 370.876)">
<stop stop-color="#5956E9"/>
<stop offset="1" stop-color="#565A5E" stop-opacity="0"/>
</radialGradient>
<radialGradient id="paint25_radial_10518_66283" cx="0" cy="0" r="1" gradientUnits="userSpaceOnUse" gradientTransform="translate(294.891 283.304) rotate(-78.4279) scale(258.966 302.347)">
<stop stop-color="#5956E9" stop-opacity="0.7"/>
<stop offset="1" stop-color="#5956E9" stop-opacity="0"/>
</radialGradient>
</defs>
</svg>
