<svg width="1920" height="2615" viewBox="0 0 1920 2615" fill="none" xmlns="http://www.w3.org/2000/svg">
<circle opacity="0.2" cx="1840" cy="2659.99" r="620" fill="url(#paint0_radial_10460_21291)"/>
<circle opacity="0.2" cx="-1.33264" cy="-1.33594" r="620" fill="url(#paint1_radial_10460_21291)"/>
<path d="M2407.36 1774.37L2685 1182.37L2091.21 1458.7C1925.71 1535.7 1734.67 1535.7 1569.36 1458.7L975.752 1181.8L1252.83 1774C1330.04 1939.05 1330.04 2129.58 1252.64 2294.44L975 2886.45L1568.79 2610.12C1734.29 2533.12 1925.33 2533.12 2090.64 2610.3L2684.25 2887.2L2407.17 2295C2329.96 2129.95 2330.15 1939.42 2407.36 1774.56V1774.37Z" stroke="url(#paint2_radial_10460_21291)"/>
<path d="M2407.36 1774.37L2685 1182.37L2091.21 1458.7C1925.71 1535.7 1734.67 1535.7 1569.36 1458.7L975.752 1181.8L1252.83 1774C1330.04 1939.05 1330.04 2129.58 1252.64 2294.44L975 2886.45L1568.79 2610.12C1734.29 2533.12 1925.33 2533.12 2090.64 2610.3L2684.25 2887.2L2407.17 2295C2329.96 2129.95 2330.15 1939.42 2407.36 1774.56V1774.37Z" stroke="url(#paint3_radial_10460_21291)" stroke-opacity="0.7"/>
<path d="M2407.36 1774.37L2685 1182.37L2091.21 1458.7C1925.71 1535.7 1734.67 1535.7 1569.36 1458.7L975.752 1181.8L1252.83 1774C1330.04 1939.05 1330.04 2129.58 1252.64 2294.44L975 2886.45L1568.79 2610.12C1734.29 2533.12 1925.33 2533.12 2090.64 2610.3L2684.25 2887.2L2407.17 2295C2329.96 2129.95 2330.15 1939.42 2407.36 1774.56V1774.37Z" stroke="url(#paint4_radial_10460_21291)"/>
<path d="M2407.36 1774.37L2685 1182.37L2091.21 1458.7C1925.71 1535.7 1734.67 1535.7 1569.36 1458.7L975.752 1181.8L1252.83 1774C1330.04 1939.05 1330.04 2129.58 1252.64 2294.44L975 2886.45L1568.79 2610.12C1734.29 2533.12 1925.33 2533.12 2090.64 2610.3L2684.25 2887.2L2407.17 2295C2329.96 2129.95 2330.15 1939.42 2407.36 1774.56V1774.37Z" stroke="url(#paint5_radial_10460_21291)"/>
<path d="M2214.23 1861.38L2399 1467.41L2003.83 1651.3C1893.69 1702.55 1766.56 1702.55 1656.54 1651.3L1261.5 1467.03L1445.9 1861.14C1497.28 1970.98 1497.28 2097.77 1445.77 2207.49L1261 2601.47L1656.17 2417.57C1766.31 2366.33 1893.44 2366.33 2003.46 2417.69L2398.5 2601.97L2214.1 2207.86C2162.72 2098.02 2162.85 1971.22 2214.23 1861.51V1861.38Z" stroke="url(#paint6_radial_10460_21291)"/>
<path d="M2214.23 1861.38L2399 1467.41L2003.83 1651.3C1893.69 1702.55 1766.56 1702.55 1656.54 1651.3L1261.5 1467.03L1445.9 1861.14C1497.28 1970.98 1497.28 2097.77 1445.77 2207.49L1261 2601.47L1656.17 2417.57C1766.31 2366.33 1893.44 2366.33 2003.46 2417.69L2398.5 2601.97L2214.1 2207.86C2162.72 2098.02 2162.85 1971.22 2214.23 1861.51V1861.38Z" stroke="url(#paint7_radial_10460_21291)" stroke-opacity="0.7"/>
<path d="M2214.23 1861.38L2399 1467.41L2003.83 1651.3C1893.69 1702.55 1766.56 1702.55 1656.54 1651.3L1261.5 1467.03L1445.9 1861.14C1497.28 1970.98 1497.28 2097.77 1445.77 2207.49L1261 2601.47L1656.17 2417.57C1766.31 2366.33 1893.44 2366.33 2003.46 2417.69L2398.5 2601.97L2214.1 2207.86C2162.72 2098.02 2162.85 1971.22 2214.23 1861.51V1861.38Z" stroke="url(#paint8_radial_10460_21291)"/>
<path d="M2214.23 1861.38L2399 1467.41L2003.83 1651.3C1893.69 1702.55 1766.56 1702.55 1656.54 1651.3L1261.5 1467.03L1445.9 1861.14C1497.28 1970.98 1497.28 2097.77 1445.77 2207.49L1261 2601.47L1656.17 2417.57C1766.31 2366.33 1893.44 2366.33 2003.46 2417.69L2398.5 2601.97L2214.1 2207.86C2162.72 2098.02 2162.85 1971.22 2214.23 1861.51V1861.38Z" stroke="url(#paint9_radial_10460_21291)"/>
<circle cx="90" cy="1725" r="855" stroke="url(#paint10_radial_10460_21291)"/>
<circle cx="90" cy="1725" r="855" stroke="url(#paint11_radial_10460_21291)" stroke-opacity="0.7"/>
<circle cx="90" cy="1725" r="855" stroke="url(#paint12_radial_10460_21291)"/>
<circle cx="90" cy="1725" r="855" stroke="url(#paint13_radial_10460_21291)"/>
<circle cx="90" cy="1725" r="680" stroke="url(#paint14_radial_10460_21291)"/>
<circle cx="90" cy="1725" r="680" stroke="url(#paint15_radial_10460_21291)" stroke-opacity="0.7"/>
<circle cx="90" cy="1725" r="680" stroke="url(#paint16_radial_10460_21291)"/>
<circle cx="90" cy="1725" r="680" stroke="url(#paint17_radial_10460_21291)"/>
<path d="M2064.36 -197.298L2342 -789.305L1748.21 -512.973C1582.71 -435.974 1391.67 -435.974 1226.36 -512.973L632.752 -789.867L909.83 -197.672C987.037 -32.6221 987.037 157.907 909.643 322.769L632 914.776L1225.79 638.444C1391.29 561.446 1582.33 561.446 1747.64 638.631L2341.25 915.526L2064.17 323.331C1986.96 158.281 1987.15 -32.2477 2064.36 -197.11V-197.298Z" stroke="url(#paint18_radial_10460_21291)"/>
<path d="M2064.36 -197.298L2342 -789.305L1748.21 -512.973C1582.71 -435.974 1391.67 -435.974 1226.36 -512.973L632.752 -789.867L909.83 -197.672C987.037 -32.6221 987.037 157.907 909.643 322.769L632 914.776L1225.79 638.444C1391.29 561.446 1582.33 561.446 1747.64 638.631L2341.25 915.526L2064.17 323.331C1986.96 158.281 1987.15 -32.2477 2064.36 -197.11V-197.298Z" stroke="url(#paint19_radial_10460_21291)" stroke-opacity="0.7"/>
<path d="M2064.36 -197.298L2342 -789.305L1748.21 -512.973C1582.71 -435.974 1391.67 -435.974 1226.36 -512.973L632.752 -789.867L909.83 -197.672C987.037 -32.6221 987.037 157.907 909.643 322.769L632 914.776L1225.79 638.444C1391.29 561.446 1582.33 561.446 1747.64 638.631L2341.25 915.526L2064.17 323.331C1986.96 158.281 1987.15 -32.2477 2064.36 -197.11V-197.298Z" stroke="url(#paint20_radial_10460_21291)"/>
<path d="M2064.36 -197.298L2342 -789.305L1748.21 -512.973C1582.71 -435.974 1391.67 -435.974 1226.36 -512.973L632.752 -789.867L909.83 -197.672C987.037 -32.6221 987.037 157.907 909.643 322.769L632 914.776L1225.79 638.444C1391.29 561.446 1582.33 561.446 1747.64 638.631L2341.25 915.526L2064.17 323.331C1986.96 158.281 1987.15 -32.2477 2064.36 -197.11V-197.298Z" stroke="url(#paint21_radial_10460_21291)"/>
<path d="M1871.23 -110.287L2056 -504.267L1660.83 -320.368C1550.69 -269.126 1423.56 -269.126 1313.54 -320.368L918.5 -504.641L1102.9 -110.537C1154.28 -0.696228 1154.28 126.1 1102.77 235.816L918 629.795L1313.17 445.896C1423.31 394.654 1550.44 394.654 1660.46 446.021L2055.5 630.294L1871.1 236.19C1819.72 126.349 1819.85 -0.446991 1871.23 -110.163V-110.287Z" stroke="url(#paint22_radial_10460_21291)"/>
<path d="M1871.23 -110.287L2056 -504.267L1660.83 -320.368C1550.69 -269.126 1423.56 -269.126 1313.54 -320.368L918.5 -504.641L1102.9 -110.537C1154.28 -0.696228 1154.28 126.1 1102.77 235.816L918 629.795L1313.17 445.896C1423.31 394.654 1550.44 394.654 1660.46 446.021L2055.5 630.294L1871.1 236.19C1819.72 126.349 1819.85 -0.446991 1871.23 -110.163V-110.287Z" stroke="url(#paint23_radial_10460_21291)" stroke-opacity="0.7"/>
<path d="M1871.23 -110.287L2056 -504.267L1660.83 -320.368C1550.69 -269.126 1423.56 -269.126 1313.54 -320.368L918.5 -504.641L1102.9 -110.537C1154.28 -0.696228 1154.28 126.1 1102.77 235.816L918 629.795L1313.17 445.896C1423.31 394.654 1550.44 394.654 1660.46 446.021L2055.5 630.294L1871.1 236.19C1819.72 126.349 1819.85 -0.446991 1871.23 -110.163V-110.287Z" stroke="url(#paint24_radial_10460_21291)"/>
<path d="M1871.23 -110.287L2056 -504.267L1660.83 -320.368C1550.69 -269.126 1423.56 -269.126 1313.54 -320.368L918.5 -504.641L1102.9 -110.537C1154.28 -0.696228 1154.28 126.1 1102.77 235.816L918 629.795L1313.17 445.896C1423.31 394.654 1550.44 394.654 1660.46 446.021L2055.5 630.294L1871.1 236.19C1819.72 126.349 1819.85 -0.446991 1871.23 -110.163V-110.287Z" stroke="url(#paint25_radial_10460_21291)"/>
<defs>
<radialGradient id="paint0_radial_10460_21291" cx="0" cy="0" r="1" gradientUnits="userSpaceOnUse" gradientTransform="translate(1840 2659.99) rotate(90) scale(620)">
<stop stop-color="#2028F6"/>
<stop offset="1" stop-color="#8721F5" stop-opacity="0"/>
</radialGradient>
<radialGradient id="paint1_radial_10460_21291" cx="0" cy="0" r="1" gradientUnits="userSpaceOnUse" gradientTransform="translate(-1.33264 -1.33594) rotate(90) scale(620)">
<stop stop-color="#9747FF"/>
<stop offset="1" stop-color="#9747FF" stop-opacity="0"/>
</radialGradient>
<radialGradient id="paint2_radial_10460_21291" cx="0" cy="0" r="1" gradientUnits="userSpaceOnUse" gradientTransform="translate(2662.66 1204.29) rotate(90) scale(510.726 572.71)">
<stop stop-color="#565A5E"/>
<stop offset="1" stop-color="#333B43" stop-opacity="0"/>
</radialGradient>
<radialGradient id="paint3_radial_10460_21291" cx="0" cy="0" r="1" gradientUnits="userSpaceOnUse" gradientTransform="translate(2685.26 2993.53) rotate(-90) scale(845.573 948.195)">
<stop stop-color="#565A5E"/>
<stop offset="1" stop-color="#333B43" stop-opacity="0"/>
</radialGradient>
<radialGradient id="paint4_radial_10460_21291" cx="0" cy="0" r="1" gradientUnits="userSpaceOnUse" gradientTransform="translate(1674 1650) rotate(158.066) scale(639.815 641.543)">
<stop stop-color="#5956E9"/>
<stop offset="1" stop-color="#565A5E" stop-opacity="0"/>
</radialGradient>
<radialGradient id="paint5_radial_10460_21291" cx="0" cy="0" r="1" gradientUnits="userSpaceOnUse" gradientTransform="translate(1781.4 3000.29) rotate(-78.4539) scale(835.42 973.291)">
<stop stop-color="#5956E9" stop-opacity="0.7"/>
<stop offset="1" stop-color="#5956E9" stop-opacity="0"/>
</radialGradient>
<radialGradient id="paint6_radial_10460_21291" cx="0" cy="0" r="1" gradientUnits="userSpaceOnUse" gradientTransform="translate(2384.13 1482) rotate(90) scale(339.887 381.137)">
<stop stop-color="#565A5E"/>
<stop offset="1" stop-color="#333B43" stop-opacity="0"/>
</radialGradient>
<radialGradient id="paint7_radial_10460_21291" cx="0" cy="0" r="1" gradientUnits="userSpaceOnUse" gradientTransform="translate(2399.17 2672.73) rotate(-90) scale(562.726 631.021)">
<stop stop-color="#565A5E"/>
<stop offset="1" stop-color="#333B43" stop-opacity="0"/>
</radialGradient>
<radialGradient id="paint8_radial_10460_21291" cx="0" cy="0" r="1" gradientUnits="userSpaceOnUse" gradientTransform="translate(1726.18 1778.61) rotate(158.066) scale(425.795 426.945)">
<stop stop-color="#5956E9"/>
<stop offset="1" stop-color="#565A5E" stop-opacity="0"/>
</radialGradient>
<radialGradient id="paint9_radial_10460_21291" cx="0" cy="0" r="1" gradientUnits="userSpaceOnUse" gradientTransform="translate(1797.66 2677.23) rotate(-78.4539) scale(555.969 647.723)">
<stop stop-color="#5956E9" stop-opacity="0.7"/>
<stop offset="1" stop-color="#5956E9" stop-opacity="0"/>
</radialGradient>
<radialGradient id="paint10_radial_10460_21291" cx="0" cy="0" r="1" gradientUnits="userSpaceOnUse" gradientTransform="translate(-742.662 892.551) rotate(90) scale(512.106 572.71)">
<stop stop-color="#565A5E"/>
<stop offset="1" stop-color="#333B43" stop-opacity="0"/>
</radialGradient>
<radialGradient id="paint11_radial_10460_21291" cx="0" cy="0" r="1" gradientUnits="userSpaceOnUse" gradientTransform="translate(-765.259 2686.62) rotate(-90) scale(847.857 948.195)">
<stop stop-color="#565A5E"/>
<stop offset="1" stop-color="#333B43" stop-opacity="0"/>
</radialGradient>
<radialGradient id="paint12_radial_10460_21291" cx="0" cy="0" r="1" gradientUnits="userSpaceOnUse" gradientTransform="translate(946.05 465.231) rotate(90) scale(1193.78 1193.78)">
<stop stop-color="#5956E9"/>
<stop offset="1" stop-color="#565A5E" stop-opacity="0"/>
</radialGradient>
<radialGradient id="paint13_radial_10460_21291" cx="0" cy="0" r="1" gradientUnits="userSpaceOnUse" gradientTransform="translate(138.601 2693.4) rotate(-101.516) scale(837.586 973.396)">
<stop stop-color="#5956E9" stop-opacity="0.7"/>
<stop offset="1" stop-color="#5956E9" stop-opacity="0"/>
</radialGradient>
<radialGradient id="paint14_radial_10460_21291" cx="0" cy="0" r="1" gradientUnits="userSpaceOnUse" gradientTransform="translate(-572.234 1062.94) rotate(90) scale(407.289 455.489)">
<stop stop-color="#565A5E"/>
<stop offset="1" stop-color="#333B43" stop-opacity="0"/>
</radialGradient>
<radialGradient id="paint15_radial_10460_21291" cx="0" cy="0" r="1" gradientUnits="userSpaceOnUse" gradientTransform="translate(-590.206 2489.79) rotate(-90) scale(674.319 754.12)">
<stop stop-color="#565A5E"/>
<stop offset="1" stop-color="#333B43" stop-opacity="0"/>
</radialGradient>
<radialGradient id="paint16_radial_10460_21291" cx="0" cy="0" r="1" gradientUnits="userSpaceOnUse" gradientTransform="translate(770.835 723.079) rotate(90) scale(949.441 949.441)">
<stop stop-color="#5956E9"/>
<stop offset="1" stop-color="#565A5E" stop-opacity="0"/>
</radialGradient>
<radialGradient id="paint17_radial_10460_21291" cx="0" cy="0" r="1" gradientUnits="userSpaceOnUse" gradientTransform="translate(128.654 2495.19) rotate(-101.516) scale(666.15 774.163)">
<stop stop-color="#5956E9" stop-opacity="0.7"/>
<stop offset="1" stop-color="#5956E9" stop-opacity="0"/>
</radialGradient>
<radialGradient id="paint18_radial_10460_21291" cx="0" cy="0" r="1" gradientUnits="userSpaceOnUse" gradientTransform="translate(2319.66 -767.377) rotate(90) scale(510.726 572.71)">
<stop stop-color="#565A5E"/>
<stop offset="1" stop-color="#333B43" stop-opacity="0"/>
</radialGradient>
<radialGradient id="paint19_radial_10460_21291" cx="0" cy="0" r="1" gradientUnits="userSpaceOnUse" gradientTransform="translate(2342.26 1021.85) rotate(-90) scale(845.573 948.195)">
<stop stop-color="#565A5E"/>
<stop offset="1" stop-color="#333B43" stop-opacity="0"/>
</radialGradient>
<radialGradient id="paint20_radial_10460_21291" cx="0" cy="0" r="1" gradientUnits="userSpaceOnUse" gradientTransform="translate(630.95 -1193.55) rotate(90) scale(1190.57 1193.78)">
<stop stop-color="#5956E9"/>
<stop offset="1" stop-color="#565A5E" stop-opacity="0"/>
</radialGradient>
<radialGradient id="paint21_radial_10460_21291" cx="0" cy="0" r="1" gradientUnits="userSpaceOnUse" gradientTransform="translate(1438.4 1028.62) rotate(-78.4539) scale(835.42 973.291)">
<stop stop-color="#5956E9" stop-opacity="0.7"/>
<stop offset="1" stop-color="#5956E9" stop-opacity="0"/>
</radialGradient>
<radialGradient id="paint22_radial_10460_21291" cx="0" cy="0" r="1" gradientUnits="userSpaceOnUse" gradientTransform="translate(2041.13 -489.673) rotate(90) scale(339.887 381.137)">
<stop stop-color="#565A5E"/>
<stop offset="1" stop-color="#333B43" stop-opacity="0"/>
</radialGradient>
<radialGradient id="paint23_radial_10460_21291" cx="0" cy="0" r="1" gradientUnits="userSpaceOnUse" gradientTransform="translate(2056.17 701.055) rotate(-90) scale(562.726 631.021)">
<stop stop-color="#565A5E"/>
<stop offset="1" stop-color="#333B43" stop-opacity="0"/>
</radialGradient>
<radialGradient id="paint24_radial_10460_21291" cx="0" cy="0" r="1" gradientUnits="userSpaceOnUse" gradientTransform="translate(917.301 -773.287) rotate(90) scale(792.318 794.459)">
<stop stop-color="#5956E9"/>
<stop offset="1" stop-color="#565A5E" stop-opacity="0"/>
</radialGradient>
<radialGradient id="paint25_radial_10460_21291" cx="0" cy="0" r="1" gradientUnits="userSpaceOnUse" gradientTransform="translate(1454.66 705.557) rotate(-78.4539) scale(555.969 647.723)">
<stop stop-color="#5956E9" stop-opacity="0.7"/>
<stop offset="1" stop-color="#5956E9" stop-opacity="0"/>
</radialGradient>
</defs>
</svg>
